<?xml version="1.0" encoding="UTF-8"?>
<svg width="40px" height="40px" viewBox="0 0 40 40" version="1.1" xmlns="http://www.w3.org/2000/svg" xmlns:xlink="http://www.w3.org/1999/xlink">
    <title>legoremote-small</title>
    <g id="legoremote-small" stroke="none" stroke-width="1" fill="none" fill-rule="evenodd">
        <rect id="Rectangle-Copy" stroke="#7C87A5" fill="#E6E7E8" x="1.5" y="12.5" width="37" height="15"></rect>
        <polygon id="Path-3" stroke="#7C87A5" fill="#FFFFFF" points="35 10.5 38.5 13.9535516 38.5 20 35.0928968 29.5 5 29.5 1.5 20 1.5 13.9535516 4.90710316 10.5"></polygon>
        <circle id="Oval" stroke="#7C87A5" cx="11" cy="20" r="6"></circle>
        <circle id="Oval-Copy" stroke="#7C87A5" cx="29" cy="20" r="6"></circle>
        <rect id="Rectangle" stroke="#7C87A5" fill="#E6E7E8" x="8.5" y="14" width="5" height="12" rx="2.5"></rect>
        <rect id="Rectangle-Copy-2" stroke="#7C87A5" fill="#E6E7E8" x="26.5" y="14" width="5" height="12" rx="2.5"></rect>
        <rect id="Rectangle" fill="#FF661A" x="9" y="18" width="4" height="4"></rect>
        <rect id="Rectangle-Copy-5" fill="#FF661A" x="27" y="18" width="4" height="4"></rect>
        <rect id="Rectangle-Copy-4" stroke="#389438" fill="#46B946" x="18.5" y="18.5" width="3" height="3"></rect>
        <polyline id="Path" stroke="#3D79CC" fill="#4C97FF" points="21 11 21 14 19 14 19 11"></polyline>
        <polyline id="Path-6" stroke="#7C87A5" points="15.5 29.5 17 26.5 23 26.5 24.5 29.5"></polyline>
    </g>
</svg>