<?xml version="1.0" encoding="UTF-8"?>
<svg width="40px" height="40px" viewBox="0 0 40 40" version="1.1" xmlns="http://www.w3.org/2000/svg" xmlns:xlink="http://www.w3.org/1999/xlink">
    <!-- Generator: Sketch 59.1 (86144) - https://sketch.com -->
    <title>duplotrain-small</title>
    <desc>Created with Sketch.</desc>
    <g id="duplotrain-small" stroke="none" stroke-width="1" fill="none" fill-rule="evenodd">
        <g id="Group" transform="translate(4.000000, 7.500000)">
            <path d="M14.5,3.5 L1.5,3.5 L1.5,18 L30.5,18 L30.5,14 L14.5,14 L14.5,3.5 Z M11,6 L11,12 L5,12 L5,6 L11,6 Z" id="Combined-Shape" stroke="#B60B00" fill="#FF0F00"></path>
            <rect id="Rectangle-Copy-3" stroke="#C1B300" fill="#FFEC00" x="0.5" y="1.5" width="15" height="2"></rect>
            <circle id="Oval" stroke="#7C87A5" fill="#E7E8E8" cx="8" cy="21.5" r="3.5"></circle>
            <circle id="Oval-Copy" stroke="#7C87A5" fill="#E7E8E8" cx="24" cy="21.5" r="3.5"></circle>
            <rect id="Rectangle-Copy-7" stroke="#B60B00" fill="#FF0F00" x="14.5" y="6" width="15" height="8" rx="1"></rect>
            <rect id="Rectangle-Copy-9" stroke="#B60B00" fill="#FF0F00" transform="translate(19.500000, 5.250000) scale(1, -1) translate(-19.500000, -5.250000) " x="17.5" y="4.5" width="4" height="1.5" rx="0.75"></rect>
            <rect id="Rectangle-Copy-11" stroke="#B60B00" fill="#FF0F00" transform="translate(27.500000, 3.500000) scale(1, -1) translate(-27.500000, -3.500000) " x="26.5" y="3.5" width="2" height="1"></rect>
            <path d="M26.3385165,4.5 L25.7385165,6 L29.2614835,6 L28.6614835,4.5 L26.3385165,4.5 Z" id="Rectangle-Copy-10" stroke="#B60B00" fill="#FF0F00" transform="translate(27.500000, 5.250000) scale(1, -1) translate(-27.500000, -5.250000) "></path>
            <rect id="Rectangle-Copy-5" stroke="#C1B300" x="2" y="0.5" width="2" height="1"></rect>
            <rect id="Rectangle-Copy-6" stroke="#C1B300" x="6" y="0.5" width="2" height="1"></rect>
            <path d="M0.5,18 C0.5,18.33997 0.5,18.4818684 0.5,19 C0.5,20.9329896 2.06699804,22.4999906 3.99998924,22.5 L28,22.5 C29.9329943,22.5 31.4999969,20.9329984 31.5,19.0000036 C31.5,18.4825222 31.5,18.3411394 31.5,18 C25.1319156,18 24.8622389,18 14.0308078,18 C6.50958361,18 6.30514685,18 0.5,18 Z" id="Rectangle-Copy" stroke="#7C87A5" fill="#33322E"></path>
            <rect id="Rectangle" fill="#E7E8E8" x="27" y="19.5" width="5" height="1"></rect>
        </g>
    </g>
</svg>