<?xml version="1.0" encoding="UTF-8"?>
<svg width="90px" height="125px" viewBox="0 0 90 125" version="1.1" xmlns="http://www.w3.org/2000/svg" xmlns:xlink="http://www.w3.org/1999/xlink">
    <!-- Generator: Sketch 64 (93537) - https://sketch.com -->
    <title>legomario-illustration</title>
    <desc>Created with Sketch.</desc>
    <g id="legomario-illustration" stroke="none" stroke-width="1" fill="none" fill-rule="evenodd">
        <g id="legomario" transform="translate(4.000000, 0.000000)">
            <g id="Group" transform="translate(0.500000, 0.500000)">
                <rect id="Rectangle" stroke="#2B63BC" fill="#396DC2" stroke-linejoin="round" x="15.5" y="108.5" width="15" height="9"></rect>
                <rect id="Rectangle" stroke="#2B63BC" fill="#396DC2" stroke-linejoin="round" transform="translate(58.000000, 113.000000) scale(-1, 1) translate(-58.000000, -113.000000) " x="50.5" y="108.5" width="15" height="9"></rect>
                <path d="M15.5,117.5 L30.5,117.5 C31.6045695,117.5 32.5,118.395431 32.5,119.5 L32.5,124 L13.5,124 L13.5,119.5 C13.5,118.395431 14.3954305,117.5 15.5,117.5 Z" id="Rectangle-Copy-3" stroke="#6E392C" fill="#622612"></path>
                <path d="M50.5,117.5 L65.5,117.5 C66.6045695,117.5 67.5,118.395431 67.5,119.5 L67.5,124 L48.5,124 L48.5,119.5 C48.5,118.395431 49.3954305,117.5 50.5,117.5 Z" id="Rectangle-Copy-4" stroke="#6E392C" fill="#622612"></path>
                <g id="arm-R" transform="translate(0.000000, 73.273998)">
                    <path d="M13.9030084,0 C12.5311291,0 10.1213159,1.26849794 8.39622874,3.17212845 C6.03090337,5.78226072 4.5267597,9.78113005 3.85469509,15.8765471 L10.9379584,17.3383049 C11.2696623,15.9892789 11.9030084,10.5907542 13.9030084,8.72600219 L13.9030084,0 Z" id="Path-8" stroke="#DE2C2F" fill="#F3474A"></path>
                    <rect id="Rectangle" stroke="#9FAED6" fill="#FFFFFF" stroke-linejoin="round" transform="translate(6.986700, 18.623986) rotate(10.000000) translate(-6.986700, -18.623986) " x="2.48669987" y="16.1239859" width="9" height="5"></rect>
                    <path d="M6,20.2260022 C8.209139,20.2260022 10,22.0168632 10,24.2260022 C10,25.4099756 9.4856015,26.4738048 8.66810248,27.2061918 L8.37445611,25.4409406 C8.56126184,25.0765824 8.66666667,24.6636016 8.66666667,24.2260022 C8.66666667,22.7532429 7.47275933,21.5593355 6,21.5593355 C4.52724067,21.5593355 3.33333333,22.7532429 3.33333333,24.2260022 C3.33333333,24.6636016 3.43873816,25.0765824 3.62554389,25.4409406 L3.33290985,27.2070985 C2.51482318,26.4746829 2,25.4104642 2,24.2260022 C2,22.0168632 3.790861,20.2260022 6,20.2260022 Z" id="Combined-Shape" stroke="#BCC3D5" stroke-width="0.5" fill="#BEC3D2"></path>
                    <path d="M6,18.2260022 C9.3137085,18.2260022 12,20.9122937 12,24.2260022 C12,26.4336239 10.8077321,28.3627766 9.03197707,29.4046793 L8.66810248,27.2061918 C9.4856015,26.4738048 10,25.4099756 10,24.2260022 C10,22.0168632 8.209139,20.2260022 6,20.2260022 C3.790861,20.2260022 2,22.0168632 2,24.2260022 C2,25.4104642 2.51482318,26.4746829 3.33290985,27.2070985 L2.96802293,29.4046793 C1.19226791,28.3627766 0,26.4336239 0,24.2260022 C0,20.9122937 2.6862915,18.2260022 6,18.2260022 Z" id="Combined-Shape" stroke="#9FAED6" fill="#FFFFFF" stroke-linejoin="round"></path>
                </g>
                <rect id="ear.-R" stroke="#EDA77F" fill="#FACDAD" stroke-linejoin="round" x="8.5" y="42.5" width="5" height="13" rx="1"></rect>
                <g id="arm-L" transform="translate(67.096992, 73.273998)">
                    <path d="M10.0483133,-3.55271368e-15 C8.676434,-3.55271368e-15 6.26662076,1.26849794 4.54153365,3.17212845 C2.17620828,5.78226072 0.67206461,9.78113005 -8.8817842e-16,15.8765471 L7.08326329,17.3383049 C7.41496719,15.9892789 8.04831329,10.5907542 10.0483133,8.72600219 L10.0483133,-3.55271368e-15 Z" id="Path-8" stroke="#DE2C2F" fill="#F3474A" transform="translate(5.024157, 8.669152) scale(-1, 1) translate(-5.024157, -8.669152) "></path>
                    <rect id="Rectangle" stroke="#9FAED6" fill="#FFFFFF" stroke-linejoin="round" transform="translate(6.916309, 18.623986) scale(-1, 1) rotate(10.000000) translate(-6.916309, -18.623986) " x="2.41630851" y="16.1239859" width="9" height="5"></rect>
                    <path d="M7.90300838,20.2260022 C10.1121474,20.2260022 11.9030084,22.0168632 11.9030084,24.2260022 C11.9030084,25.4099756 11.3886099,26.4738048 10.5711109,27.2061918 L10.2774645,25.4409406 C10.4642702,25.0765824 10.569675,24.6636016 10.569675,24.2260022 C10.569675,22.7532429 9.37576771,21.5593355 7.90300838,21.5593355 C6.43024905,21.5593355 5.23634171,22.7532429 5.23634171,24.2260022 C5.23634171,24.6636016 5.34174654,25.0765824 5.52855227,25.4409406 L5.23591823,27.2070985 C4.41783156,26.4746829 3.90300838,25.4104642 3.90300838,24.2260022 C3.90300838,22.0168632 5.69386938,20.2260022 7.90300838,20.2260022 Z" id="Combined-Shape" stroke="#BCC3D5" stroke-width="0.5" fill="#BEC3D2" transform="translate(7.903008, 23.716550) scale(-1, 1) translate(-7.903008, -23.716550) "></path>
                    <path d="M7.90300838,18.2260022 C11.2167169,18.2260022 13.9030084,20.9122937 13.9030084,24.2260022 C13.9030084,26.4336239 12.7107405,28.3627766 10.9349854,29.4046793 L10.5711109,27.2061918 C11.3886099,26.4738048 11.9030084,25.4099756 11.9030084,24.2260022 C11.9030084,22.0168632 10.1121474,20.2260022 7.90300838,20.2260022 C5.69386938,20.2260022 3.90300838,22.0168632 3.90300838,24.2260022 C3.90300838,25.4104642 4.41783156,26.4746829 5.23591823,27.2070985 L4.87103132,29.4046793 C3.0952763,28.3627766 1.90300838,26.4336239 1.90300838,24.2260022 C1.90300838,20.9122937 4.58929988,18.2260022 7.90300838,18.2260022 Z" id="Combined-Shape" stroke="#9FAED6" fill="#FFFFFF" stroke-linejoin="round" transform="translate(7.903008, 23.663011) scale(-1, 1) translate(-7.903008, -23.663011) "></path>
                </g>
                <rect id="ear-L" stroke="#EDA77F" fill="#FACDAD" stroke-linejoin="round" transform="translate(70.000000, 49.000000) scale(-1, 1) translate(-70.000000, -49.000000) " x="67.5" y="42.5" width="5" height="13" rx="1"></rect>
                <rect id="Rectangle" stroke="#2B63BC" fill="#396DC2" stroke-linejoin="round" x="13.5" y="69.5" width="54" height="24" rx="1"></rect>
                <path d="M65.5,69.5 C66.6045695,69.5 67.5,70.3954305 67.5,71.5 L67.5,107.718 L49.021,116.5 L31.978,116.5 L13.5,107.718 L13.5,71.5 C13.5,70.3954305 14.3954305,69.5 15.5,69.5 L65.5,69.5 Z" id="pants" stroke="#2B63BC" fill="#396DC2" stroke-linejoin="round"></path>
                <rect id="Rectangle" stroke="#2B63BC" fill="#DA3535" x="26.5" y="69.5" width="28" height="20"></rect>
                <rect id="screen" fill="#454545" x="28.5" y="73.5" width="24" height="13"></rect>
                <path d="M67.5,25.4125977 L67.5,64.809082 L62.809082,69.5 L49.6488926,69.5005909 C47.4477627,71.3356594 44.1658435,72.5 40.5,72.5 C36.8341565,72.5 33.5522373,71.3356594 31.3511074,69.5005909 L18.190918,69.5 L13.5,64.809082 L13.5,25.4125977 L67.5,25.4125977 Z" id="face" stroke="#EDA77F" fill="#FACDAD" stroke-linejoin="round"></path>
                <g id="mouse" transform="translate(29.500000, 54.500000)">
                    <ellipse id="Oval" fill="#454545" cx="11" cy="7.5" rx="11" ry="7.5"></ellipse>
                    <path d="M11,1 C13.5687058,1 15.9634056,1.25788752 17.9798099,1.702947 C20.4344829,3.07856164 22,5.16462874 22,7.5 C22,7.63676863 21.9946307,7.77268221 21.9840279,7.9076481 C19.6792104,9.16533962 15.621193,10 11,10 C6.37858278,10 2.32039576,9.16525861 0.015113845,7.90758636 L0.00437262898,7.71353579 L0.00437262898,7.71353579 L0,7.5 C0,5.16462874 1.56551707,3.07856164 4.02005376,1.70304696 C6.03659441,1.25788752 8.43129418,1 11,1 Z" id="Combined-Shape" fill="#FFFFFF"></path>
                    <path d="M11,12 C13.1517518,12 14.9860405,12.9514548 15.6911092,14.2861347 C14.2672589,14.7439846 12.6774796,15 11,15 C9.32251442,15 7.7327297,14.7439827 6.31011168,14.2861294 C7.01395947,12.9514548 8.84824817,12 11,12 Z" id="Combined-Shape" fill="#FF0000"></path>
                    <ellipse id="Oval-Copy-10" stroke="#D0AA90" cx="11" cy="7.5" rx="11.5" ry="8"></ellipse>
                </g>
                <path d="M44.5,63.5 C46.4338041,63.5 48.1111988,62.4021811 48.940945,60.7963851 C49.6895658,61.2432469 50.5647989,61.5 51.5,61.5 C53.9192443,61.5 55.9371893,59.7818336 56.3987697,57.4989956 L56.5,57.5 C59.2614237,57.5 61.5,55.2614237 61.5,52.5 C61.5,50.9629473 60.8064412,49.5878839 59.7152036,48.67069 C58.9654968,48.0405554 56.1214484,53.5 40.4990787,53.5 C24.876709,53.5 22.0345032,48.0405554 21.2847964,48.67069 C20.1935588,49.5878839 19.5,50.9629473 19.5,52.5 C19.5,55.2614237 21.7385763,57.5 24.5,57.5 L24.6012303,57.4989956 C25.0628107,59.7818336 27.0807557,61.5 29.5,61.5 C30.4352011,61.5 31.3104342,61.2432469 32.059055,60.7963851 C32.8888012,62.4021811 34.5661959,63.5 36.5,63.5 C38.1363993,63.5 39.5891923,62.7138882 40.5013387,61.4987049 C41.4108077,62.7138882 42.8636007,63.5 44.5,63.5 Z" id="mustache" stroke="#565656" fill="#454545"></path>
                <g id="eye-R" transform="translate(24.500000, 30.000000)">
                    <path d="M2,12 C2,9.23857625 4.23857625,7 7,7 C9.76142375,7 12,9.23857625 12,12 C12,14.7614237 12,13.7385763 12,16.5 C12,19.2614237 9.76142375,21.5 7,21.5 C4.23857625,21.5 2,19.2614237 2,16.5 C2,13.7385763 2,14.7614237 2,12 Z" id="Oval" fill="#FFFFFF"></path>
                    <path d="M8.7,8.75 C10.3615612,8.75 11.3964849,9.72362244 11.935866,11.2016432 C11.9783522,11.4619506 12,11.7284472 12,12 L12,16.5 L12,16.5 C12,16.770162 11.9785734,17.0353195 11.9373267,17.2938658 C11.3977133,18.7746331 10.3622066,19.75 8.7,19.75 C6.05890947,19.75 5,17.2875661 5,14.25 C5,11.2124339 6.05757087,8.75 8.7,8.75 Z" id="Combined-Shape" fill="#4593C7"></path>
                    <path d="M7,14.25 C7,13.0946646 7.14380483,12.0237106 7.63516333,11.2933129 C7.86830507,10.9467508 8.22167314,10.75 8.7,10.75 C9.17832686,10.75 9.53169493,10.9467508 9.76483667,11.2933129 C10.2561952,12.0237106 10.4,13.0946646 10.4,14.25 C10.4,15.4051913 10.2558714,16.4759805 9.76453478,17.2063458 C9.53138002,17.5529272 9.1781781,17.75 8.7,17.75 C8.2218219,17.75 7.86861998,17.5529272 7.63546522,17.2063458 C7.14412858,16.4759805 7,15.4051913 7,14.25 Z" id="Oval-Copy-7" stroke="#4E4E4E" fill="#454545"></path>
                    <circle id="Oval" fill="#FFFFFF" cx="8.7" cy="12.5" r="1"></circle>
                    <circle id="Oval-Copy-6" fill="#4593C7" cx="8.7" cy="16" r="1"></circle>
                    <path d="M0.376708984,5.79760742 C0.793128778,2.30362956 2.50111556,0.556640625 5.50066934,0.556640625 C8.50022311,0.556640625 10.4887695,2.51692708 11.4663086,6.4375 C9.3992513,4.55208333 7.41070488,3.609375 5.50066934,3.609375 C3.59063379,3.609375 1.88264701,4.33878581 0.376708984,5.79760742 Z" id="Path-7" fill="#454545"></path>
                </g>
                <g id="eye-L" transform="translate(44.100000, 30.556641)">
                    <path d="M0.4,11.4433594 C0.4,8.68193563 2.63857625,6.44335938 5.4,6.44335938 C8.16142375,6.44335938 10.4,8.68193563 10.4,11.4433594 C10.4,14.2047831 10.4,13.1819356 10.4,15.9433594 C10.4,18.7047831 8.16142375,20.9433594 5.4,20.9433594 C2.63857625,20.9433594 0.4,18.7047831 0.4,15.9433594 C0.4,13.1819356 0.4,14.2047831 0.4,11.4433594 Z" id="Oval" fill="#FFFFFF" transform="translate(5.400000, 13.693359) scale(-1, 1) translate(-5.400000, -13.693359) "></path>
                    <path d="M3.7,8.19335938 C6.34242913,8.19335938 7.4,10.6557933 7.4,13.6933594 C7.4,16.7309255 6.34109053,19.1933594 3.7,19.1933594 C2.03779339,19.1933594 1.00228667,18.2179925 0.463033365,16.7377444 C0.421426645,16.4786788 0.4,16.2135213 0.4,15.9433594 L0.4,15.9433594 L0.4,11.4433594 C0.4,11.1718066 0.421647821,10.90531 0.46331187,10.6455011 C1.00351512,9.16698182 2.03843878,8.19335938 3.7,8.19335938 Z" id="Combined-Shape" fill="#4593C7"></path>
                    <path d="M2,13.6933594 C2,12.538024 2.14380483,11.46707 2.63516333,10.7366722 C2.86830507,10.3901102 3.22167314,10.1933594 3.7,10.1933594 C4.17832686,10.1933594 4.53169493,10.3901102 4.76483667,10.7366722 C5.25619517,11.46707 5.4,12.538024 5.4,13.6933594 C5.4,14.8485507 5.25587142,15.9193399 4.76453478,16.6497052 C4.53138002,16.9962866 4.1781781,17.1933594 3.7,17.1933594 C3.2218219,17.1933594 2.86861998,16.9962866 2.63546522,16.6497052 C2.14412858,15.9193399 2,14.8485507 2,13.6933594 Z" id="Oval" stroke="#4E4E4E" fill="#454545" transform="translate(3.700000, 13.693359) scale(-1, 1) translate(-3.700000, -13.693359) "></path>
                    <circle id="Oval" fill="#FFFFFF" transform="translate(3.700000, 11.943359) scale(-1, 1) translate(-3.700000, -11.943359) " cx="3.7" cy="11.9433594" r="1"></circle>
                    <circle id="Oval-Copy-6" fill="#4593C7" transform="translate(3.700000, 15.443359) scale(-1, 1) translate(-3.700000, -15.443359) " cx="3.7" cy="15.4433594" r="1"></circle>
                    <path d="M0.933691406,5.2409668 C1.3501112,1.74698893 3.05809798,-3.10862447e-15 6.05765176,-3.10862447e-15 C9.05720553,-3.10862447e-15 11.045752,1.96028646 12.023291,5.88085938 C9.95623372,3.99544271 7.96768731,3.05273437 6.05765176,3.05273437 C4.14761621,3.05273438 2.43962943,3.78214518 0.933691406,5.2409668 Z" id="Path-7" fill="#454545" transform="translate(6.478491, 2.940430) scale(-1, 1) translate(-6.478491, -2.940430) "></path>
                </g>
                <ellipse id="nose" stroke="#EDA77F" fill="#FACDAD" stroke-linejoin="round" cx="40.5" cy="53.5" rx="9" ry="7"></ellipse>
                <path d="M18.0117797,20.5 C17.0371704,19.9707404 16.5332438,18.2928111 16.5,15.4662123 C16.5,5.88431607 33.605957,0 40.5,0 C47.394043,0 64.500061,5.88431607 64.500061,15.4662123 C64.4668172,18.2928111 63.9628906,19.9707404 62.9882812,20.5 L40.5,20.5 L18.0117797,20.5 Z" id="hat" stroke="#DE2C2F" fill="#F3474A"></path>
                <g id="hear" transform="translate(13.500000, 15.500000)" fill="#622612" stroke="#6E392C">
                    <path d="M46,4 C47.1256932,4 48.1645005,4.37200249 49.0001943,4.99977979 L52,5 L52,5 C53.328125,5 54,6.29811952 54,7.44954219 L54,30 L54,30 C50.578776,29.1611696 48.8681641,27.7583604 48.8681641,25.7915723 L48.8687679,13.0956602 C48.056695,13.6655225 47.0674082,14 46,14 C43.2385763,14 41,11.7614237 41,9 L41.001,8.919 L12.998,8.919 L13,9 C13,11.6887547 10.8776933,13.8818181 8.21688962,13.9953805 L8,14 C6.9325918,14 5.94330499,13.6655225 5.13123214,13.0956602 L5.13183594,25.7915723 L5.13183594,25.7915723 C5.13183594,27.7583604 3.42122396,29.1611696 0,30 L0,7.44954219 L0,7.44954219 C0,6.29811952 0.671875,5 2,5 L4.99980567,4.99977979 C5.83549949,4.37200249 6.87430683,4 8,4 C9.12569317,4 10.1645005,4.37200249 11.0001943,4.99977979 L42.9998057,4.99977979 C43.8354995,4.37200249 44.8743068,4 46,4 Z" id="Combined-Shape"></path>
                    <circle id="Oval" cx="18" cy="8" r="6"></circle>
                    <circle id="Oval" transform="translate(36.000000, 8.000000) scale(-1, 1) translate(-36.000000, -8.000000) " cx="36" cy="8" r="6"></circle>
                    <circle id="Oval" cx="27" cy="6" r="6"></circle>
                </g>
                <path d="M40.5000585,20.5 L19.8857983,20.5 C18.9924062,20.3709123 18.5304735,19.9616613 18.5,19.2722469 C18.5,16.935199 34.1805183,15.5 40.5000585,15.5 C46.8195986,15.5 34.1804624,15.5 40.5,15.5 C46.8195427,15.5 62.500061,16.935199 62.500061,19.2722469 C62.4695875,19.9616613 62.0076548,20.3709123 61.1142627,20.5 L40.5,20.5" id="hat-copy" stroke="#DE2C2F" fill="#F3474A"></path>
                <g id="M-mark" transform="translate(33.000000, 2.000000)">
                    <ellipse id="Oval" fill="#FFFFFF" cx="7.5" cy="6" rx="7.5" ry="6"></ellipse>
                    <polyline id="Path-2" fill="#EB2C2F" points="7.5 4.33949093 4.73031124 1.76938004 1.17518271 7.60871976 3.43548387 9.09185988 5.32069052 4.65378024 7.5 6.79816028"></polyline>
                    <polyline id="Path-2-Copy" fill="#EB2C2F" transform="translate(10.662409, 5.430620) scale(-1, 1) translate(-10.662409, -5.430620) " points="13.8248173 4.33949093 11.0551285 1.76938004 7.5 7.60871976 9.76030116 9.09185988 11.6455078 4.65378024 13.8248173 6.79816028"></polyline>
                </g>
                <circle id="button" stroke="#E6AB00" fill="#FFD500" transform="translate(61.000000, 82.000000) scale(-1, 1) translate(-61.000000, -82.000000) " cx="61" cy="82" r="6.5"></circle>
                <circle id="button" stroke="#E6AB00" fill="#FFD500" cx="20" cy="82" r="6.5"></circle>
            </g>
        </g>
    </g>
</svg>