<?xml version="1.0" encoding="UTF-8"?>
<svg width="40px" height="40px" viewBox="0 0 40 40" version="1.1" xmlns="http://www.w3.org/2000/svg" xmlns:xlink="http://www.w3.org/1999/xlink">
    <title>duplotrain-small</title>
    <g id="duplotrain-small" stroke="none" stroke-width="1" fill="none" fill-rule="evenodd">
        <g transform="translate(3.000000, 7.000000)">
            <path d="M15.5,3.5 L15.5,14.5 L32.5,14.5 L32.5,18.5 L1.5,18.5 L1.5,3.5 L15.5,3.5 Z M11.5,6.5 L5.5,6.5 L5.5,12.5 L11.5,12.5 L11.5,6.5 Z" id="Shape" stroke="#E0392F" fill="#FF585B" fill-rule="nonzero"></path>
            <rect id="Rectangle-Copy-2" stroke="#C1B300" fill="#FFEC00" fill-rule="nonzero" x="0.5" y="1.5" width="16" height="2"></rect>
            <circle id="Oval" stroke="#7C87A5" fill="#E7E8E8" fill-rule="nonzero" cx="9" cy="22" r="3.5"></circle>
            <circle id="Oval-Copy" stroke="#7C87A5" fill="#E7E8E8" fill-rule="nonzero" cx="25" cy="22" r="3.5"></circle>
            <rect id="Rectangle-Copy-7" stroke="#E0392F" fill="#FF585B" fill-rule="nonzero" x="15.5" y="6.5" width="16" height="8" rx="1"></rect>
            <rect id="Rectangle-Copy-9" stroke="#E0392F" fill="#FF585B" fill-rule="nonzero" transform="translate(20.500000, 5.500000) scale(-1, 1) rotate(-180.000000) translate(-20.500000, -5.500000) " x="18.5" y="4.5" width="4" height="2" rx="1"></rect>
            <rect id="Rectangle-Copy-11" stroke="#E0392F" fill="#FF585B" fill-rule="nonzero" transform="translate(28.500000, 4.000000) scale(-1, 1) rotate(-180.000000) translate(-28.500000, -4.000000) " x="27.5" y="3.5" width="2" height="1"></rect>
            <polygon id="Rectangle-Copy-10" stroke="#E0392F" fill="#FF585B" fill-rule="nonzero" transform="translate(28.500000, 5.500000) scale(-1, 1) rotate(-180.000000) translate(-28.500000, -5.500000) " points="29.6396204 4.5 30.3062871 6.5 26.6937129 6.5 27.3603796 4.5"></polygon>
            <rect id="Rectangle-Copy-5" stroke="#C1B300" x="2.5" y="0.5" width="2" height="1"></rect>
            <rect id="Rectangle-Copy-6" stroke="#C1B300" x="6.5" y="0.5" width="2" height="1"></rect>
            <path d="M33.5,18.5 L33.5,21 C33.5,21.6903559 33.220178,22.3153559 32.767767,22.767767 C32.3153559,23.220178 31.6903559,23.5 31,23.5 L31,23.5 L3,23.5 C2.30964406,23.5 1.68464406,23.220178 1.23223305,22.767767 C0.779822031,22.3153559 0.5,21.6903559 0.5,21 L0.5,21 L0.5,18.5 L33.5,18.5 Z" id="Rectangle" stroke="#7C87A5" fill="#565656" fill-rule="nonzero"></path>
            <rect id="Rectangle" fill="#E7E8E8" fill-rule="nonzero" x="29" y="20" width="5" height="1"></rect>
        </g>
    </g>
</svg>