<?xml version="1.0" encoding="UTF-8"?>
<svg width="92px" height="128px" viewBox="0 0 92 128" version="1.1" xmlns="http://www.w3.org/2000/svg" xmlns:xlink="http://www.w3.org/1999/xlink">
    <!-- Generator: Sketch 59.1 (86144) - https://sketch.com -->
    <title>spike-hub-illustration</title>
    <desc>Created with Sketch.</desc>
    <g id="spike-hub-illustration" stroke="none" stroke-width="1" fill="none" fill-rule="evenodd">
        <rect fill="#FFD500" x="0" y="0" width="92" height="128"></rect>
        <g id="Group-Copy" transform="translate(8.000000, 26.000000)" fill="#FFFFFF">
            <polygon id="Rectangle" points="16 16 28 16 28 28 16 28"></polygon>
            <polygon id="Rectangle-Copy" points="16 9.99200722e-16 28 4.99600361e-16 28 12 16 12"></polygon>
            <polygon id="Rectangle-Copy-3" points="32 32 44 32 44 44 32 44"></polygon>
            <polygon id="Rectangle-Copy-4" points="32 48 44 48 44 60 32 60"></polygon>
            <polygon id="Rectangle-Copy-13" points="48 48 60 48 60 60 48 60"></polygon>
            <polygon id="Rectangle-Copy-12" points="32 64 44 64 44 76 32 76"></polygon>
            <polygon id="Rectangle-Copy-11" points="16 32 28 32 28 44 16 44"></polygon>
            <polygon id="Rectangle-Copy-10" points="16 48 28 48 28 60 16 60"></polygon>
            <polygon id="Rectangle-Copy-2" points="32 16 44 16 44 28 32 28"></polygon>
            <polygon id="Rectangle-Copy-9" points="0 32 12 32 12 44 0 44"></polygon>
            <polygon id="Rectangle-Copy-8" points="0 16 12 16 12 28 0 28"></polygon>
            <polygon id="Rectangle-Copy-7" points="48 16 60 16 60 28 48 28"></polygon>
            <polygon id="Rectangle-Copy-6" points="48 32 60 32 60 44 48 44"></polygon>
            <polygon id="Rectangle-Copy-15" points="64 16 76 16 76 28 64 28"></polygon>
            <polygon id="Rectangle-Copy-14" points="64 32 76 32 76 44 64 44"></polygon>
            <polygon id="Rectangle-Copy-5" points="48 9.99200722e-16 60 4.99600361e-16 60 12 48 12"></polygon>
        </g>
    </g>
</svg>