<?xml version="1.0" encoding="UTF-8"?>
<svg width="40px" height="40px" viewBox="0 0 40 40" version="1.1" xmlns="http://www.w3.org/2000/svg" xmlns:xlink="http://www.w3.org/1999/xlink">
    <!-- Generator: Sketch 53.1 (72631) - https://sketchapp.com -->
    <title>Artboard</title>
    <desc>Created with Sketch.</desc>
    <g id="Artboard" stroke="none" stroke-width="1" fill="none" fill-rule="evenodd">
        <rect id="Rectangle" stroke="#7C87A5" fill="#FFFFFF" x="4.5" y="12.5" width="31" height="16"></rect>
        <rect id="Rectangle-Copy-2" stroke="#7C87A5" fill="#E7E8E8" x="4.5" y="15.5" width="31" height="13"></rect>
        <rect id="Rectangle-Copy-5" stroke="#7C87A5" fill="#E7E8E8" x="4.5" y="24.5" width="31" height="4"></rect>
        <rect id="Rectangle-Copy-3" stroke="#7C87A5" fill="#B6B6B6" transform="translate(7.750000, 14.750000) scale(1, -1) translate(-7.750000, -14.750000) " x="6" y="14" width="3.5" height="1.5"></rect>
        <rect id="Rectangle-Copy-4" stroke="#7C87A5" fill="#B6B6B6" transform="translate(13.250000, 14.750000) scale(1, -1) translate(-13.250000, -14.750000) " x="11.5" y="14" width="3.5" height="1.5"></rect>
        <rect id="Rectangle-Copy" stroke="#7C87A5" x="4.5" y="12.5" width="12" height="16"></rect>
        <path d="M7.5,12.25 C7.5,11.8357864 7.16421356,11.5 6.75,11.5 C6.33578644,11.5 6,11.8357864 6,12.25 C6,12.1530284 5.98747529,12.1411703 6.06338215,12.1691185 C6.23043896,12.2306271 6.48261772,12.267767 6.75,12.267767 C7.01738228,12.267767 7.26956104,12.2306271 7.43661785,12.1691185 C7.51252471,12.1411703 7.5,12.1530284 7.5,12.25 Z" id="Path" stroke="#7C87A5"></path>
        <path d="M10.5,12.25 C10.5,11.8357864 10.1642136,11.5 9.75,11.5 C9.33578644,11.5 9,11.8357864 9,12.25 C9,12.1530284 8.98747529,12.1411703 9.06338215,12.1691185 C9.23043896,12.2306271 9.48261772,12.267767 9.75,12.267767 C10.0173823,12.267767 10.269561,12.2306271 10.4366178,12.1691185 C10.5125247,12.1411703 10.5,12.1530284 10.5,12.25 Z" id="Path" stroke="#7C87A5"></path>
        <path d="M13.5,12.25 C13.5,11.8357864 13.1642136,11.5 12.75,11.5 C12.3357864,11.5 12,11.8357864 12,12.25 C12,12.1530284 11.9874753,12.1411703 12.0633822,12.1691185 C12.230439,12.2306271 12.4826177,12.267767 12.75,12.267767 C13.0173823,12.267767 13.269561,12.2306271 13.4366178,12.1691185 C13.5125247,12.1411703 13.5,12.1530284 13.5,12.25 Z" id="Path" stroke="#7C87A5"></path>
        <path d="M16.5,12.25 C16.5,11.8357864 16.1642136,11.5 15.75,11.5 C15.3357864,11.5 15,11.8357864 15,12.25 C15,12.1530284 14.9874753,12.1411703 15.0633822,12.1691185 C15.230439,12.2306271 15.4826177,12.267767 15.75,12.267767 C16.0173823,12.267767 16.269561,12.2306271 16.4366178,12.1691185 C16.5125247,12.1411703 16.5,12.1530284 16.5,12.25 Z" id="Path-Copy-3" stroke="#7C87A5"></path>
        <path d="M19.5,12.25 C19.5,11.8357864 19.1642136,11.5 18.75,11.5 C18.3357864,11.5 18,11.8357864 18,12.25 C18,12.1530284 17.9874753,12.1411703 18.0633822,12.1691185 C18.230439,12.2306271 18.4826177,12.267767 18.75,12.267767 C19.0173823,12.267767 19.269561,12.2306271 19.4366178,12.1691185 C19.5125247,12.1411703 19.5,12.1530284 19.5,12.25 Z" id="Path-Copy-2" stroke="#7C87A5"></path>
        <path d="M22.5,12.25 C22.5,11.8357864 22.1642136,11.5 21.75,11.5 C21.3357864,11.5 21,11.8357864 21,12.25 C21,12.1530284 20.9874753,12.1411703 21.0633822,12.1691185 C21.230439,12.2306271 21.4826177,12.267767 21.75,12.267767 C22.0173823,12.267767 22.269561,12.2306271 22.4366178,12.1691185 C22.5125247,12.1411703 22.5,12.1530284 22.5,12.25 Z" id="Path-Copy" stroke="#7C87A5"></path>
        <path d="M25.5,12.25 C25.5,11.8357864 25.1642136,11.5 24.75,11.5 C24.3357864,11.5 24,11.8357864 24,12.25 C24,12.1530284 23.9874753,12.1411703 24.0633822,12.1691185 C24.230439,12.2306271 24.4826177,12.267767 24.75,12.267767 C25.0173823,12.267767 25.269561,12.2306271 25.4366178,12.1691185 C25.5125247,12.1411703 25.5,12.1530284 25.5,12.25 Z" id="Path-Copy-6" stroke="#7C87A5"></path>
        <path d="M28.5,12.25 C28.5,11.8357864 28.1642136,11.5 27.75,11.5 C27.3357864,11.5 27,11.8357864 27,12.25 C27,12.1530284 26.9874753,12.1411703 27.0633822,12.1691185 C27.230439,12.2306271 27.4826177,12.267767 27.75,12.267767 C28.0173823,12.267767 28.269561,12.2306271 28.4366178,12.1691185 C28.5125247,12.1411703 28.5,12.1530284 28.5,12.25 Z" id="Path-Copy-5" stroke="#7C87A5"></path>
        <path d="M31.5,12.25 C31.5,11.8357864 31.1642136,11.5 30.75,11.5 C30.3357864,11.5 30,11.8357864 30,12.25 C30,12.1530284 29.9874753,12.1411703 30.0633822,12.1691185 C30.230439,12.2306271 30.4826177,12.267767 30.75,12.267767 C31.0173823,12.267767 31.269561,12.2306271 31.4366178,12.1691185 C31.5125247,12.1411703 31.5,12.1530284 31.5,12.25 Z" id="Path-Copy-4" stroke="#7C87A5"></path>
        <path d="M34.5,12.25 C34.5,11.8357864 34.1642136,11.5 33.75,11.5 C33.3357864,11.5 33,11.8357864 33,12.25 C33,12.1530284 32.9874753,12.1411703 33.0633822,12.1691185 C33.230439,12.2306271 33.4826177,12.267767 33.75,12.267767 C34.0173823,12.267767 34.269561,12.2306271 34.4366178,12.1691185 C34.5125247,12.1411703 34.5,12.1530284 34.5,12.25 Z" id="Path-Copy-7" stroke="#7C87A5"></path>
    </g>
</svg>