<?xml version="1.0" encoding="UTF-8"?>
<svg width="147px" height="81px" viewBox="0 0 147 81" version="1.1" xmlns="http://www.w3.org/2000/svg" xmlns:xlink="http://www.w3.org/1999/xlink">
    <!-- Generator: Sketch 59.1 (86144) - https://sketch.com -->
    <title>duplotrain-illustration</title>
    <desc>Created with Sketch.</desc>
    <defs>
        <linearGradient x1="39.5777227%" y1="-0.973706643%" x2="70.8511219%" y2="-4.72713177%" id="linearGradient-1">
            <stop stop-color="#FE5255" offset="33.1392%"></stop>
            <stop stop-color="#F3474A" offset="33.1492%"></stop>
        </linearGradient>
        <linearGradient x1="49.6412545%" y1="-3.83337981%" x2="110.243474%" y2="-3.83337981%" id="linearGradient-2">
            <stop stop-color="#FE5255" offset="33.1392%"></stop>
            <stop stop-color="#F3474A" offset="33.1492%"></stop>
        </linearGradient>
        <linearGradient x1="49.7937522%" y1="-10.4346866%" x2="108.416184%" y2="-10.4346866%" id="linearGradient-3">
            <stop stop-color="#FE5255" offset="33.1392%"></stop>
            <stop stop-color="#F3474A" offset="33.1492%"></stop>
        </linearGradient>
        <linearGradient x1="49.7171085%" y1="-3.83422492%" x2="109.313813%" y2="-3.83422492%" id="linearGradient-4">
            <stop stop-color="#FE5255" offset="33.1392%"></stop>
            <stop stop-color="#F3474A" offset="33.1492%"></stop>
        </linearGradient>
        <linearGradient x1="3.59704438%" y1="110.087068%" x2="77.1409738%" y2="110.087068%" id="linearGradient-5">
            <stop stop-color="#FAEF41" offset="79.0055%"></stop>
            <stop stop-color="#FFFFFF" stop-opacity="0" offset="79.0155%"></stop>
        </linearGradient>
        <linearGradient x1="3.60013905%" y1="110.087068%" x2="77.1399423%" y2="110.087068%" id="linearGradient-6">
            <stop stop-color="#FAEF41" offset="79.0055%"></stop>
            <stop stop-color="#FFFFFF" stop-opacity="0" offset="79.0155%"></stop>
        </linearGradient>
        <linearGradient x1="3.58982347%" y1="110.087068%" x2="77.1399423%" y2="110.087068%" id="linearGradient-7">
            <stop stop-color="#FAEF41" offset="79.0055%"></stop>
            <stop stop-color="#FFFFFF" stop-opacity="0" offset="79.0155%"></stop>
        </linearGradient>
        <linearGradient x1="49.4693493%" y1="47.2178483%" x2="51.2630193%" y2="52.7819652%" id="linearGradient-8">
            <stop stop-color="#FFFFFF" stop-opacity="0" offset="64.6409%"></stop>
            <stop stop-color="#E3D93C" offset="66.8508%"></stop>
        </linearGradient>
    </defs>
    <g id="Page-1" stroke="none" stroke-width="1" fill="none" fill-rule="evenodd">
        <g id="duplotrain" transform="translate(0.000000, -1.000000)">
            <g>
                <rect id="wheel" stroke="#7D7D7D" fill="#C3C3C3" fill-rule="nonzero" x="30.1938576" y="54.3418391" width="26.8046" height="26.8046" rx="13.4023"></rect>
                <rect id="wheel" stroke="#7D7D7D" fill="#C3C3C3" fill-rule="nonzero" x="94.3581832" y="54.3403481" width="26.8046" height="26.8046" rx="13.4023"></rect>
                <rect id="base" stroke="#454545" fill="#565656" fill-rule="nonzero" x="10.5597345" y="54.2726498" width="129.468" height="20.3881" rx="7.5"></rect>
                <g id="Group-3" transform="translate(107.797971, 9.085933)" fill-rule="nonzero" stroke="#7D7D7D">
                    <path d="M5.996488,2.12640293 C5.971488,1.85140293 6.174488,1.60850293 6.450488,1.58400293 L12.979488,1.00200293 C13.254488,0.977502933 13.497488,1.18060293 13.521488,1.45570293 L14.388488,11.1806029 C14.413488,11.4557029 14.210488,11.6985029 13.934488,11.7230029 L7.405488,12.3050029 C7.130488,12.3295029 6.887488,12.1264029 6.863488,11.8514029 L5.996488,2.12640293 Z" id="Path" fill="url(#linearGradient-1)" transform="translate(10.192488, 6.653503) rotate(5.000000) translate(-10.192488, -6.653503) "></path>
                    <rect id="Rectangle" fill="url(#linearGradient-2)" x="4.283996" y="5.54938343" width="11.8329" height="11.8329" rx="3.5"></rect>
                    <rect id="Rectangle" fill="url(#linearGradient-3)" x="0" y="5.54939723" width="20.3881" height="4.34704" rx="2.17352"></rect>
                </g>
                <g id="Group-4" transform="translate(78.930095, 14.686831)">
                    <rect id="Rectangle" fill="#FE5255" fill-rule="nonzero" x="1.33226763e-14" y="-3.55271368e-15" width="15.0411" height="11.8329" rx="3.5"></rect>
                    <rect id="Rectangle" fill="url(#linearGradient-4)" fill-rule="nonzero" x="1.33226763e-14" y="-3.55271368e-15" width="15.0411" height="11.8329" rx="3.5"></rect>
                    <rect id="Rectangle" stroke="#7D7D7D" x="1.33226763e-14" y="-3.55271368e-15" width="15.0411" height="11.8329" rx="3.5"></rect>
                </g>
                <rect id="Rectangle" stroke="#7D7D7D" fill="#F3474A" fill-rule="nonzero" x="128.154709" y="36.0007546" width="7.55526" height="8.62466" rx="0.5"></rect>
                <path d="M71.0427119,14.7591894 C71.3188543,14.7591894 71.5427119,14.983047 71.5427119,15.2591894 L71.5429596,22.1580295 C71.6181084,22.1532122 71.6939025,22.1507665 71.7702678,22.1507665 L127.934668,22.1507665 C129.867664,22.1507665 131.434668,23.7177699 131.434668,25.6507665 L131.433702,44.5491894 L139.505055,44.5500255 C139.781197,44.5500255 140.005055,44.7738831 140.005055,45.0500255 L140.004702,55.3411894 L141.656702,55.342067 C141.932844,55.342067 142.156702,55.5659246 142.156702,55.842067 L142.156702,61.327917 C142.156702,61.6040594 141.932844,61.827917 141.656702,61.827917 L9.98070152,61.827917 C9.70455914,61.827917 9.48070152,61.6040594 9.48070152,61.327917 L9.48070152,55.842067 C9.48070152,55.5659246 9.70455914,55.342067 9.98070152,55.342067 L12.6557015,55.3411894 L12.6559119,15.2591894 C12.6559119,14.983047 12.8797695,14.7591894 13.1559119,14.7591894 L71.0427119,14.7591894 Z" id="body-main" fill="#FE5255" fill-rule="nonzero"></path>
                <path d="M140.236567,44.6203481 L140.236567,55.8303481 L13.2365669,55.8303481 L13.2365669,51.6193481 L132.086167,51.6194092 C133.140529,51.6194092 134.004332,50.8035314 134.080682,49.7686716 L134.086167,49.6194092 L134.085567,44.6203481 L140.236567,44.6203481 Z" id="body-shadow" fill="#F3474A" fill-rule="nonzero"></path>
                <path d="M71.0427119,14.7591894 C71.3188543,14.7591894 71.5427119,14.983047 71.5427119,15.2591894 L71.5429596,22.1580295 C71.6181084,22.1532122 71.6939025,22.1507665 71.7702678,22.1507665 L127.934668,22.1507665 C129.867664,22.1507665 131.434668,23.7177699 131.434668,25.6507665 L131.433702,44.5491894 L139.505055,44.5500255 C139.781197,44.5500255 140.005055,44.7738831 140.005055,45.0500255 L140.004702,55.3411894 L141.656702,55.342067 C141.932844,55.342067 142.156702,55.5659246 142.156702,55.842067 L142.156702,61.327917 C142.156702,61.6040594 141.932844,61.827917 141.656702,61.827917 L9.98070152,61.827917 C9.70455914,61.827917 9.48070152,61.6040594 9.48070152,61.327917 L9.48070152,55.842067 C9.48070152,55.5659246 9.70455914,55.342067 9.98070152,55.342067 L12.6557015,55.3411894 L12.6559119,15.2591894 C12.6559119,14.983047 12.8797695,14.7591894 13.1559119,14.7591894 L71.0427119,14.7591894 Z" id="body-main" stroke="#7D7D7D" fill-rule="nonzero"></path>
                <rect id="Rectangle" fill="#767676" fill-rule="nonzero" x="21.7730914" y="23.8916165" width="31.0128" height="20.3187" rx="2"></rect>
                <path d="M50.6315163,23.8699565 L50.6342198,25.8699026 L50.6342198,25.8699026 L50.6574412,40.0498856 C50.659197,41.154241 49.7655715,42.0517718 48.6602199,42.0534404 L23.7870564,42.0937548 L23.7795417,42.0929565 L21.7862137,42.0963797 L21.7825417,40.0489565 L21.7602453,25.9169489 L21.7605417,25.8889565 L21.7575417,23.9170028 L23.7382327,23.9139117 C23.7446252,23.913842 23.7510249,23.9138022 23.7574318,23.9137925 L48.6306301,23.8730797 L48.6375417,23.8729565 L50.6315163,23.8699565 Z" id="Combined-Shape" fill="#72ADFF" fill-rule="nonzero"></path>
                <rect id="Rectangle" fill="#F3474A" fill-rule="nonzero" x="60.2720711" y="23.8437065" width="12.8329" height="20.3187" rx="2"></rect>
                <rect id="Rectangle" fill="#767676" fill-rule="nonzero" x="60.2685877" y="23.8489409" width="6.41644" height="16.0411" rx="1"></rect>
                <path d="M64.5375,23.8506919 L64.5377476,24.7340651 C64.542191,24.7723219 64.5444753,24.8112373 64.5444753,24.8506862 L64.5444753,36.7529862 C64.5444753,37.305271 64.09676,37.7529862 63.5444753,37.7529862 L63.48187,37.7526919 L63.4825097,37.7538156 L60.2742897,37.7538156 L60.2742991,36.8756958 C60.2693786,36.8354816 60.2668453,36.7945298 60.2668453,36.7529862 L60.26587,29.1976919 L60.25987,29.1977319 L60.25987,23.8506919 L64.5375,23.8506919 Z" id="Combined-Shape" fill="#72ADFF" fill-rule="nonzero"></path>
                <rect id="Rectangle" fill="#FFFBBE" fill-rule="nonzero" transform="translate(134.650930, 67.578782) scale(-1, 1) translate(-134.650930, -67.578782) " x="125.560983" y="65.4399672" width="18.1798953" height="4.27762889" rx="2"></rect>
                <path d="M122.982396,68.7539728 C123.198396,71.1669728 125.328396,72.9489728 127.742396,72.7339728 L142.921396,71.3809728 C145.335396,71.1659728 147.117396,69.0349728 146.902396,66.6219728 C146.686396,64.2079728 144.555396,62.4259728 142.142396,62.6409728 L126.963396,63.9939728 C124.549396,64.2089728 122.767396,66.3399728 122.982396,68.7539728 Z" id="Path" fill-opacity="0.2" fill="#FFFBBE" fill-rule="nonzero" transform="translate(134.942396, 67.687473) rotate(5.000000) translate(-134.942396, -67.687473) "></path>
                <g id="Group-2" transform="translate(14.739861, 1.894891)">
                    <rect id="Rectangle" fill="#E3D93C" fill-rule="nonzero" x="5.32907052e-15" y="0.06807715" width="9.69407" height="5.41644" rx="0.5"></rect>
                    <rect id="Rectangle" fill="url(#linearGradient-5)" fill-rule="nonzero" x="5.32907052e-15" y="0.06807715" width="9.69407" height="5.41644" rx="0.5"></rect>
                    <rect id="Rectangle" stroke="#7D7D7D" x="5.32907052e-15" y="0.06807715" width="9.69407" height="5.41644" rx="0.5"></rect>
                    <rect id="Rectangle" fill="#E3D93C" fill-rule="nonzero" x="13.9019839" y="0.04532832" width="9.69407" height="5.41644" rx="0.5"></rect>
                    <rect id="Rectangle" fill="url(#linearGradient-6)" fill-rule="nonzero" x="13.9019839" y="0.04532832" width="9.69407" height="5.41644" rx="0.5"></rect>
                    <rect id="Rectangle" stroke="#7D7D7D" x="13.9019839" y="0.04532832" width="9.69407" height="5.41644" rx="0.5"></rect>
                    <rect id="Rectangle" fill="#E3D93C" fill-rule="nonzero" x="27.8048557" y="0.02275755" width="9.69407" height="5.41644" rx="0.5"></rect>
                    <rect id="Rectangle" fill="url(#linearGradient-7)" fill-rule="nonzero" x="27.8048557" y="0.02275755" width="9.69407" height="5.41644" rx="0.5"></rect>
                    <rect id="Rectangle" stroke="#7D7D7D" x="27.8048557" y="0.02275755" width="9.69407" height="5.41644" rx="0.5"></rect>
                    <rect id="Rectangle" fill="#E3D93C" fill-rule="nonzero" x="41.70674" y="-1.73194792e-14" width="9.69407" height="5.41644" rx="0.5"></rect>
                    <rect id="Rectangle" fill="url(#linearGradient-6)" fill-rule="nonzero" x="41.70674" y="-1.73194792e-14" width="9.69407" height="5.41644" rx="0.5"></rect>
                    <rect id="Rectangle" stroke="#7D7D7D" x="41.70674" y="-1.73194792e-14" width="9.69407" height="5.41644" rx="0.5"></rect>
                </g>
                <g id="Group">
                    <path d="M2.54336837,12.417103 C4.15316837,10.491803 6.58696837,10.071603 6.81836837,10.036203 L6.82096837,10.035803 L6.83016837,10.035003 L74.5157684,4.00200295 C74.7907684,3.97750295 75.0337684,4.18060295 75.0587684,4.45560295 L75.0917684,4.82890295 C75.0957684,4.87210295 75.0939293,4.90520295 75.0887684,4.93710295 C75.0127684,5.36930295 74.7007684,7.02490295 74.0177684,8.97680295 C73.3317684,10.937203 72.2887684,13.148003 70.7767684,14.728703 C69.2067684,16.370503 66.8487684,17.486203 64.7757684,18.203603 C62.7147684,18.916803 60.9987684,19.215303 60.7667684,19.253803 C60.7607684,19.254803 60.7547684,19.255603 60.7407684,19.256803 L2.12036837,24.481803 C1.84536837,24.506303 1.60246837,24.303203 1.57796837,24.028203 L1.00386837,17.587003 L1.00316837,17.578903 L1.00306837,17.576203 C0.998868367,17.467803 0.976068367,16.655303 1.16396837,15.622703 C1.35296837,14.584303 1.74686837,13.369803 2.54336837,12.417103 Z" id="Path" fill="#FAEF41" fill-rule="nonzero" transform="translate(38.046965, 14.241903) rotate(5.000000) translate(-38.046965, -14.241903) "></path>
                    <path d="M2.54336837,12.417103 C4.15316837,10.491803 6.58696837,10.071603 6.81836837,10.036203 L6.82096837,10.035803 L6.83016837,10.035003 L74.5157684,4.00200295 C74.7907684,3.97750295 75.0337684,4.18060295 75.0587684,4.45560295 L75.0917684,4.82890295 C75.0957684,4.87210295 75.0939293,4.90520295 75.0887684,4.93710295 C75.0127684,5.36930295 74.7007684,7.02490295 74.0177684,8.97680295 C73.3317684,10.937203 72.2887684,13.148003 70.7767684,14.728703 C69.2067684,16.370503 66.8487684,17.486203 64.7757684,18.203603 C62.7147684,18.916803 60.9987684,19.215303 60.7667684,19.253803 C60.7607684,19.254803 60.7547684,19.255603 60.7407684,19.256803 L2.12036837,24.481803 C1.84536837,24.506303 1.60246837,24.303203 1.57796837,24.028203 L1.00386837,17.587003 L1.00316837,17.578903 L1.00306837,17.576203 C0.998868367,17.467803 0.976068367,16.655303 1.16396837,15.622703 C1.35296837,14.584303 1.74686837,13.369803 2.54336837,12.417103 Z" id="Path" fill="url(#linearGradient-8)" fill-rule="nonzero" transform="translate(38.046965, 14.241903) rotate(5.000000) translate(-38.046965, -14.241903) "></path>
                    <path d="M2.54336837,12.417103 C4.15316837,10.491803 6.58696837,10.071603 6.81836837,10.036203 L6.82096837,10.035803 L6.83016837,10.035003 L74.5157684,4.00200295 C74.7907684,3.97750295 75.0337684,4.18060295 75.0587684,4.45560295 L75.0917684,4.82890295 C75.0957684,4.87210295 75.0939293,4.90520295 75.0887684,4.93710295 C75.0127684,5.36930295 74.7007684,7.02490295 74.0177684,8.97680295 C73.3317684,10.937203 72.2887684,13.148003 70.7767684,14.728703 C69.2067684,16.370503 66.8487684,17.486203 64.7757684,18.203603 C62.7147684,18.916803 60.9987684,19.215303 60.7667684,19.253803 C60.7607684,19.254803 60.7547684,19.255603 60.7407684,19.256803 L2.12036837,24.481803 C1.84536837,24.506303 1.60246837,24.303203 1.57796837,24.028203 L1.00386837,17.587003 L1.00316837,17.578903 L1.00306837,17.576203 C0.998868367,17.467803 0.976068367,16.655303 1.16396837,15.622703 C1.35296837,14.584303 1.74686837,13.369803 2.54336837,12.417103 Z" id="Path" stroke="#7D7D7D" transform="translate(38.046965, 14.241903) rotate(5.000000) translate(-38.046965, -14.241903) "></path>
                </g>
            </g>
        </g>
    </g>
</svg>