<?xml version="1.0" encoding="UTF-8"?>
<svg width="40px" height="40px" viewBox="0 0 40 40" version="1.1" xmlns="http://www.w3.org/2000/svg" xmlns:xlink="http://www.w3.org/1999/xlink">
    <!-- Generator: Sketch 64 (93537) - https://sketch.com -->
    <title>legoremote-small</title>
    <desc>Created with Sketch.</desc>
    <g id="legoremote-small" stroke="none" stroke-width="1" fill="none" fill-rule="evenodd">
        <rect id="Rectangle-Copy" stroke="#7C87A5" fill="#E6E7E8" x="2" y="12.5" width="36" height="15"></rect>
        <polygon id="Path-3" stroke="#7C87A5" fill="#FFFFFF" points="35.0464484 11 38 13.9535516 38 20 35.0464484 29 20 29 4.95355158 29 2 20 2 13.9535516 4.95355158 11"></polygon>
        <circle id="Oval" stroke="#7C87A5" cx="11" cy="20" r="6"></circle>
        <circle id="Oval-Copy" stroke="#7C87A5" cx="29" cy="20" r="6"></circle>
        <rect id="Rectangle" stroke="#7C87A5" fill="#E6E7E8" x="8" y="14" width="6" height="12" rx="3"></rect>
        <rect id="Rectangle-Copy-2" stroke="#7C87A5" fill="#E6E7E8" x="26" y="14" width="6" height="12" rx="3"></rect>
        <rect id="Rectangle" fill="#FF661A" x="8.5" y="17.5" width="5" height="5"></rect>
        <rect id="Rectangle-Copy-5" fill="#FF661A" x="26.5" y="17.5" width="5" height="5"></rect>
        <rect id="Rectangle-Copy-4" stroke="#389438" fill="#46B946" x="18.5" y="18.5" width="3" height="3"></rect>
        <polyline id="Path" stroke="#3D79CC" fill="#4C97FF" points="21 11.5 21 14.5 19 14.5 19 11.5"></polyline>
        <polyline id="Path-6" stroke="#7C87A5" points="15.5 29 17 26 23 26 24.5 29"></polyline>
    </g>
</svg>