<?xml version="1.0" encoding="UTF-8"?>
<svg width="40px" height="40px" viewBox="0 0 40 40" version="1.1" xmlns="http://www.w3.org/2000/svg" xmlns:xlink="http://www.w3.org/1999/xlink">
    <!-- Generator: Sketch 59.1 (86144) - https://sketch.com -->
    <title>legoble-small</title>
    <desc>Created with Sketch.</desc>
    <g id="legoble-small" stroke="none" stroke-width="1" fill="none" fill-rule="evenodd">
        <g id="Group" transform="translate(4.000000, 11.000000)">
            <path d="M30,0 C31.1045695,-2.02906125e-16 32,0.8954305 32,2 L32,16 C32,17.1045695 31.1045695,18 30,18 L25,18 C23.8954305,18 23,17.1045695 23,16 L23,15 L9,15 L9,16 C9,17.1045695 8.1045695,18 7,18 L2,18 C0.8954305,18 1.3527075e-16,17.1045695 0,16 L0,2 C-1.3527075e-16,0.8954305 0.8954305,2.02906125e-16 2,0 L30,0 Z" id="Combined-Shape" fill="#BABAB9"></path>
            <path d="M29,15 L26,15 L26,12 L6,12 L6,15 L3,15 L3,3 L29,3 L29,15 Z" id="Combined-Shape" fill="#7F7F7F"></path>
        </g>
    </g>
</svg>