<?xml version="1.0" encoding="UTF-8"?>
<svg width="40px" height="40px" viewBox="0 0 40 40" version="1.1" xmlns="http://www.w3.org/2000/svg" xmlns:xlink="http://www.w3.org/1999/xlink">
    <!-- Generator: Sketch 64 (93537) - https://sketch.com -->
    <title>controlplus-small</title>
    <desc>Created with Sketch.</desc>
    <defs>
        <polygon id="path-1" points="0 18.9025641 31.0588235 18.9025641 31.0588235 0.424182751 0 0.424182751"></polygon>
        <polygon id="path-3" points="0 18.9025641 31.0588235 18.9025641 31.0588235 0.424182751 0 0.424182751"></polygon>
        <polygon id="path-5" points="0 18.9025641 31.0588235 18.9025641 31.0588235 0.424182751 0 0.424182751"></polygon>
    </defs>
    <g id="controlplus-small" stroke="none" stroke-width="1" fill="none" fill-rule="evenodd">
        <g id="Group" transform="translate(4.000000, 11.000000)">
            <path d="M29.6470588,18.4065268 L11.7647059,18.4065268 L11.7647059,2.53333333 L29.6470588,2.53333333 C30.1665882,2.53333333 30.5882353,2.97778275 30.5882353,3.52540793 L30.5882353,17.4144522 C30.5882353,17.9620774 30.1665882,18.4065268 29.6470588,18.4065268" id="Fill-37" fill="#E6E7E8" fill-rule="nonzero"></path>
            <path d="M29.6470588,18.4065268 L11.7647059,18.4065268 L11.7647059,2.53333333 L29.6470588,2.53333333 C30.1665882,2.53333333 30.5882353,2.97778275 30.5882353,3.52540793 L30.5882353,17.4144522 C30.5882353,17.9620774 30.1665882,18.4065268 29.6470588,18.4065268 Z" id="Stroke-39" stroke="#7C87A5" stroke-width="0.892857143" stroke-linecap="round" stroke-linejoin="round"></path>
            <path d="M11.7647059,18.4065268 L1.41176471,18.4065268 C0.892235294,18.4065268 0.470588235,17.9620774 0.470588235,17.4144522 L0.470588235,6.5016317 C0.470588235,4.311131 2.15717647,2.53333333 4.23529412,2.53333333 L19.2941176,2.53333333 L15.5294118,2.53333333 C13.4512941,2.53333333 11.7647059,4.311131 11.7647059,6.5016317 L11.7647059,18.4065268 Z" id="Fill-41" fill="#E6E7E8" fill-rule="nonzero"></path>
            <path d="M11.7647059,18.4065268 L1.41176471,18.4065268 C0.892235294,18.4065268 0.470588235,17.9620774 0.470588235,17.4144522 L0.470588235,6.5016317 C0.470588235,4.311131 2.15717647,2.53333333 4.23529412,2.53333333 L19.2941176,2.53333333 L15.5294118,2.53333333 C13.4512941,2.53333333 11.7647059,4.311131 11.7647059,6.5016317 L11.7647059,18.4065268 Z" id="Stroke-43" stroke="#7C87A5" stroke-width="0.892857143" stroke-linecap="round" stroke-linejoin="round"></path>
            <path d="M8.94117647,2.53333333 L7.05882353,2.53333333 C5.50023529,2.53333333 4.23529412,3.86668159 4.23529412,5.50955711 L4.23529412,7.49569044 C4.23529412,8.04331562 4.65694118,8.48776503 5.17647059,8.48776503 L8,8.48776503 C8.51952941,8.48776503 8.94117647,8.04331562 8.94117647,7.49569044 L8.94117647,5.50955711 C8.94117647,3.86668159 10.2061176,2.53333333 11.7647059,2.53333333 L12.7058824,2.53333333 L8.94117647,2.53333333 Z" id="Fill-45" fill="#4C97FF" fill-rule="nonzero"></path>
            <path d="M8.94117647,2.53333333 L7.05882353,2.53333333 C5.50023529,2.53333333 4.23529412,3.86668159 4.23529412,5.50955711 L4.23529412,7.49569044 C4.23529412,8.04331562 4.65694118,8.48776503 5.17647059,8.48776503 L8,8.48776503 C8.51952941,8.48776503 8.94117647,8.04331562 8.94117647,7.49569044 L8.94117647,5.50955711 C8.94117647,3.86668159 10.2061176,2.53333333 11.7647059,2.53333333 L12.7058824,2.53333333 L8.94117647,2.53333333 Z" id="Stroke-47" stroke="#3D79CC" stroke-width="0.892857143" stroke-linecap="round" stroke-linejoin="round"></path>
            <polyline id="Stroke-50" stroke="#7C87A5" stroke-width="0.892857143" stroke-linecap="round" stroke-linejoin="round" points="0.470588235 10.4738984 28.4310588 10.4738984 30.5882353 13.448138"></polyline>
            <path d="M11.7647059,18.4065268 L1.41176471,18.4065268 C0.892235294,18.4065268 0.470588235,17.9620774 0.470588235,17.4144522 L0.470588235,6.5016317 C0.470588235,4.311131 2.15717647,2.53333333 4.23529412,2.53333333 L19.2941176,2.53333333 L15.5294118,2.53333333 C13.4512941,2.53333333 11.7647059,4.311131 11.7647059,6.5016317 L11.7647059,18.4065268 Z" id="Stroke-52" stroke="#7C87A5" stroke-width="0.892857143" stroke-linecap="round" stroke-linejoin="round"></path>
            <path d="M29.6470588,18.4065268 L11.7647059,18.4065268 L11.7647059,10.4699301 L28.4310588,10.4699301 L30.5882353,13.448138 L30.5882353,17.4144522 C30.5882353,17.9620774 30.1665882,18.4065268 29.6470588,18.4065268" id="Fill-70" fill="#E6E7E8" fill-rule="nonzero"></path>
            <path d="M29.6470588,18.4065268 L11.7647059,18.4065268 L11.7647059,10.4699301 L28.4310588,10.4699301 L30.5882353,13.448138 L30.5882353,17.4144522 C30.5882353,17.9620774 30.1665882,18.4065268 29.6470588,18.4065268 Z" id="Stroke-72" stroke="#7C87A5" stroke-width="0.892857143" stroke-linecap="round" stroke-linejoin="round"></path>
            <path d="M11.7647059,18.4065268 L1.41176471,18.4065268 C0.892235294,18.4065268 0.470588235,17.9620774 0.470588235,17.4144522 L0.470588235,10.4699301 L11.7647059,10.4699301 L11.7647059,18.4065268 Z" id="Fill-74" fill="#E6E7E8" fill-rule="nonzero"></path>
            <path d="M11.7647059,18.4065268 L1.41176471,18.4065268 C0.892235294,18.4065268 0.470588235,17.9620774 0.470588235,17.4144522 L0.470588235,10.4699301 L11.7647059,10.4699301 L11.7647059,18.4065268 Z" id="Stroke-76" stroke="#7C87A5" stroke-width="0.892857143" stroke-linecap="round" stroke-linejoin="round"></path>
            <g id="Fill-78-Clipped">
                <mask id="mask-2" fill="white">
                    <use xlink:href="#path-1"></use>
                </mask>
                <g id="path-1"></g>
                <polygon id="Fill-78" fill="#E6E7E8" fill-rule="nonzero" mask="url(#mask-2)" points="15.5294118 14.4382284 26.8235294 14.4382284 26.8235294 10.4699301 15.5294118 10.4699301"></polygon>
            </g>
            <g id="Stroke-80-Clipped">
                <mask id="mask-4" fill="white">
                    <use xlink:href="#path-3"></use>
                </mask>
                <g id="path-1"></g>
                <polygon id="Stroke-80" stroke="#7C87A5" stroke-width="0.892857143" stroke-linecap="round" stroke-linejoin="round" mask="url(#mask-4)" points="15.5294118 14.4382284 26.8235294 14.4382284 26.8235294 10.4699301 15.5294118 10.4699301"></polygon>
            </g>
            <g id="Stroke-81-Clipped">
                <mask id="mask-6" fill="white">
                    <use xlink:href="#path-5"></use>
                </mask>
                <g id="path-1"></g>
                <line x1="28.432" y1="10.4738984" x2="30.5891765" y2="7.68021632" id="Stroke-81" stroke="#7C87A5" stroke-width="0.892857143" stroke-linecap="round" stroke-linejoin="round" mask="url(#mask-6)"></line>
            </g>
            <g id="Studs" transform="translate(4.236047, 1.169231)">
                <path d="M15.2768442,4.65183447e-14 L14.5464913,4.65183447e-14 C14.2283737,4.65183447e-14 13.9704913,0.21357949 13.9704913,0.47860513 L13.9704913,1.55897436 L15.8528442,1.55897436 L15.8528442,0.47860513 C15.8528442,0.21357949 15.5949619,4.65183447e-14 15.2768442,4.65183447e-14" id="Fill-1" fill="#7C87A5" fill-rule="nonzero"></path>
                <path d="M16.6738934,4.65183447e-14 L15.9435404,4.65183447e-14 C15.6254228,4.65183447e-14 15.3675404,0.21357949 15.3675404,0.47860513 L15.3675404,1.55897436 L17.2498934,1.55897436 L17.2498934,0.47860513 C17.2498934,0.21357949 16.992011,4.65183447e-14 16.6738934,4.65183447e-14 Z" id="Stroke-3"></path>
                <path d="M1.30447059,4.65183447e-14 L0.576,4.65183447e-14 C0.256,4.65183447e-14 -4.10782519e-14,0.21357949 -4.10782519e-14,0.47860513 L-4.10782519e-14,1.55897436 L1.88235294,1.55897436 L1.88235294,0.47860513 C1.88235294,0.21357949 1.62447059,4.65183447e-14 1.30447059,4.65183447e-14" id="Fill-5" fill="#7C87A5" fill-rule="nonzero"></path>
                <path d="M2.70151972,4.65183447e-14 L1.97304913,4.65183447e-14 C1.65304913,4.65183447e-14 1.39704913,0.21357949 1.39704913,0.47860513 L1.39704913,1.55897436 L3.27940207,1.55897436 L3.27940207,0.47860513 C3.27940207,0.21357949 3.02151972,4.65183447e-14 2.70151972,4.65183447e-14 Z" id="Stroke-7"></path>
                <path d="M18.0690602,4.65183447e-14 L17.3387072,4.65183447e-14 C17.0205896,4.65183447e-14 16.7645896,0.21357949 16.7645896,0.47860513 L16.7645896,1.55897436 L18.6469425,1.55897436 L18.6469425,0.47860513 C18.6469425,0.21357949 18.3871778,4.65183447e-14 18.0690602,4.65183447e-14" id="Fill-9" fill="#7C87A5" fill-rule="nonzero"></path>
                <path d="M19.4661093,4.65183447e-14 L18.7357564,4.65183447e-14 C18.4176387,4.65183447e-14 18.1616387,0.21357949 18.1616387,0.47860513 L18.1616387,1.55897436 L20.0439917,1.55897436 L20.0439917,0.47860513 C20.0439917,0.21357949 19.7842269,4.65183447e-14 19.4661093,4.65183447e-14 Z" id="Stroke-11"></path>
                <path d="M20.8650408,4.65183447e-14 L20.1346878,4.65183447e-14 C19.8165702,4.65183447e-14 19.5586878,0.21357949 19.5586878,0.47860513 L19.5586878,1.55897436 L21.4410408,1.55897436 L21.4410408,0.47860513 C21.4410408,0.21357949 21.1831584,4.65183447e-14 20.8650408,4.65183447e-14" id="Fill-13" fill="#7C87A5" fill-rule="nonzero"></path>
                <path d="M22.2620899,4.65183447e-14 L21.531737,4.65183447e-14 C21.2136193,4.65183447e-14 20.955737,0.21357949 20.955737,0.47860513 L20.955737,1.55897436 L22.8380899,1.55897436 L22.8380899,0.47860513 C22.8380899,0.21357949 22.5802076,4.65183447e-14 22.2620899,4.65183447e-14 Z" id="Stroke-15"></path>
                <path d="M9.68864774,4.65183447e-14 L8.95829484,4.65183447e-14 C8.64017714,4.65183447e-14 8.38229484,0.21357949 8.38229484,0.47860513 L8.38229484,1.55897436 L10.2646477,1.55897436 L10.2646477,0.47860513 C10.2646477,0.21357949 10.0067654,4.65183447e-14 9.68864774,4.65183447e-14" id="Fill-17" fill="#7C87A5" fill-rule="nonzero"></path>
                <path d="M11.0856968,4.65183447e-14 L10.3553439,4.65183447e-14 C10.0372263,4.65183447e-14 9.77934394,0.21357949 9.77934394,0.47860513 L9.77934394,1.55897436 L11.6616968,1.55897436 L11.6616968,0.47860513 C11.6616968,0.21357949 11.4038145,4.65183447e-14 11.0856968,4.65183447e-14 Z" id="Stroke-19"></path>
                <path d="M12.4808636,4.65183447e-14 L11.7505107,4.65183447e-14 C11.432393,4.65183447e-14 11.176393,0.21357949 11.176393,0.47860513 L11.176393,1.55897436 L13.058746,1.55897436 L13.058746,0.47860513 C13.058746,0.21357949 12.7989813,4.65183447e-14 12.4808636,4.65183447e-14" id="Fill-21" fill="#7C87A5" fill-rule="nonzero"></path>
                <path d="M13.8779128,4.65183447e-14 L13.1475598,4.65183447e-14 C12.8294422,4.65183447e-14 12.5734422,0.21357949 12.5734422,0.47860513 L12.5734422,1.55897436 L14.4557951,1.55897436 L14.4557951,0.47860513 C14.4557951,0.21357949 14.1960304,4.65183447e-14 13.8779128,4.65183447e-14 Z" id="Stroke-23"></path>
                <path d="M6.89266714,4.65183447e-14 L6.16419654,4.65183447e-14 C5.84419654,4.65183447e-14 5.58819654,0.21357949 5.58819654,0.47860513 L5.58819654,1.55897436 L7.47054944,1.55897436 L7.47054944,0.47860513 C7.47054944,0.21357949 7.21266714,4.65183447e-14 6.89266714,4.65183447e-14" id="Fill-25" fill="#7C87A5" fill-rule="nonzero"></path>
                <path d="M8.28971624,4.65183447e-14 L7.56124564,4.65183447e-14 C7.24124564,4.65183447e-14 6.98524564,0.21357949 6.98524564,0.47860513 L6.98524564,1.55897436 L8.86759864,1.55897436 L8.86759864,0.47860513 C8.86759864,0.21357949 8.60971624,4.65183447e-14 8.28971624,4.65183447e-14 Z" id="Stroke-27"></path>
                <path d="M4.09856886,4.65183447e-14 L3.36821592,4.65183447e-14 C3.05009827,4.65183447e-14 2.79409827,0.21357949 2.79409827,0.47860513 L2.79409827,1.55897436 L4.67645121,1.55897436 L4.67645121,0.47860513 C4.67645121,0.21357949 4.4166865,4.65183447e-14 4.09856886,4.65183447e-14" id="Fill-29" fill="#7C87A5" fill-rule="nonzero"></path>
                <path d="M5.49561799,4.65183447e-14 L4.76526505,4.65183447e-14 C4.4471474,4.65183447e-14 4.1911474,0.21357949 4.1911474,0.47860513 L4.1911474,1.55897436 L6.07350034,1.55897436 L6.07350034,0.47860513 C6.07350034,0.21357949 5.81373564,4.65183447e-14 5.49561799,4.65183447e-14 Z" id="Stroke-31"></path>
                <path d="M23.6572567,4.65183447e-14 L22.9269038,4.65183447e-14 C22.6087861,4.65183447e-14 22.3527861,0.21357949 22.3527861,0.47860513 L22.3527861,1.55897436 L24.2351391,1.55897436 L24.2351391,0.47860513 C24.2351391,0.21357949 23.9753744,4.65183447e-14 23.6572567,4.65183447e-14" id="Fill-33" fill="#7C87A5" fill-rule="nonzero"></path>
                <path d="M25.0543058,4.65183447e-14 L24.3239529,4.65183447e-14 C24.0058353,4.65183447e-14 23.7498353,0.21357949 23.7498353,0.47860513 L23.7498353,1.55897436 L25.6321882,1.55897436 L25.6321882,0.47860513 C25.6321882,0.21357949 25.3724235,4.65183447e-14 25.0543058,4.65183447e-14 Z" id="Stroke-35"></path>
                <path d="M13.0708705,7.79487179 L12.3405176,7.79487179 C12.0224,7.79487179 11.7645176,8.00845128 11.7645176,8.27347692 L11.7645176,9.35384613 L13.6468705,9.35384613 L13.6468705,8.27347692 C13.6468705,8.00845128 13.3889882,7.79487179 13.0708705,7.79487179" id="Fill-54" fill="#7C87A5" fill-rule="nonzero"></path>
                <path d="M13.0708705,7.79487179 L12.3405176,7.79487179 C12.0224,7.79487179 11.7645176,8.00845128 11.7645176,8.27347692 L11.7645176,9.35384613 L13.6468705,9.35384613 L13.6468705,8.27347692 C13.6468705,8.00845128 13.3889882,7.79487179 13.0708705,7.79487179 Z" id="Stroke-56"></path>
                <path d="M15.9422117,7.79487179 L15.2137411,7.79487179 C14.8937411,7.79487179 14.6377411,8.00845128 14.6377411,8.27347692 L14.6377411,9.35384613 L16.5200941,9.35384613 L16.5200941,8.27347692 C16.5200941,8.00845128 16.2622117,7.79487179 15.9422117,7.79487179" id="Fill-58" fill="#7C87A5" fill-rule="nonzero"></path>
                <path d="M15.9422117,7.79487179 L15.2137411,7.79487179 C14.8937411,7.79487179 14.6377411,8.00845128 14.6377411,8.27347692 L14.6377411,9.35384613 L16.5200941,9.35384613 L16.5200941,8.27347692 C16.5200941,8.00845128 16.2622117,7.79487179 15.9422117,7.79487179 Z" id="Stroke-60"></path>
                <path d="M18.8154353,7.79487179 L18.0850823,7.79487179 C17.7669647,7.79487179 17.5090823,8.00845128 17.5090823,8.27347692 L17.5090823,9.35384613 L19.3914353,9.35384613 L19.3914353,8.27347692 C19.3914353,8.00845128 19.1335529,7.79487179 18.8154353,7.79487179" id="Fill-62" fill="#7C87A5" fill-rule="nonzero"></path>
                <path d="M18.8154353,7.79487179 L18.0850823,7.79487179 C17.7669647,7.79487179 17.5090823,8.00845128 17.5090823,8.27347692 L17.5090823,9.35384613 L19.3914353,9.35384613 L19.3914353,8.27347692 C19.3914353,8.00845128 19.1335529,7.79487179 18.8154353,7.79487179 Z" id="Stroke-64"></path>
                <path d="M21.6867764,7.79487179 L20.9583058,7.79487179 C20.6383058,7.79487179 20.3823058,8.00845128 20.3823058,8.27347692 L20.3823058,9.35384613 L22.2646588,9.35384613 L22.2646588,8.27347692 C22.2646588,8.00845128 22.0067764,7.79487179 21.6867764,7.79487179" id="Fill-66" fill="#7C87A5" fill-rule="nonzero"></path>
                <path d="M21.6867764,7.79487179 L20.9583058,7.79487179 C20.6383058,7.79487179 20.3823058,8.00845128 20.3823058,8.27347692 L20.3823058,9.35384613 L22.2646588,9.35384613 L22.2646588,8.27347692 C22.2646588,8.00845128 22.0067764,7.79487179 21.6867764,7.79487179 Z" id="Stroke-68"></path>
            </g>
        </g>
    </g>
</svg>