<?xml version="1.0" encoding="UTF-8"?>
<svg width="90px" height="132px" viewBox="0 0 90 132" version="1.1" xmlns="http://www.w3.org/2000/svg" xmlns:xlink="http://www.w3.org/1999/xlink">
    <!-- Generator: Sketch 64 (93537) - https://sketch.com -->
    <title>legoluigi-illustration</title>
    <desc>Created with Sketch.</desc>
    <g id="legoluigi-illustration" stroke="none" stroke-width="1" fill="none" fill-rule="evenodd">
        <g id="legoluigi" transform="translate(4.000000, 0.000000)">
            <rect id="Rectangle" stroke="#1E417A" stroke-width="1" fill="#295192" stroke-linejoin="round" x="16" y="116" width="15" height="9"></rect>
            <rect id="Rectangle" stroke="#1E417A" stroke-width="1" fill="#295192" stroke-linejoin="round" transform="translate(58.500000, 120.500000) scale(-1, 1) translate(-58.500000, -120.500000) " x="51" y="116" width="15" height="9"></rect>
            <path d="M16,125 L31,125 C32.1045695,125 33,125.895431 33,127 L33,131.5 L14,131.5 L14,127 C14,125.895431 14.8954305,125 16,125 Z" id="Rectangle-Copy-3" stroke="#6E392C" stroke-width="1" fill="#622612"></path>
            <path d="M51,125 L66,125 C67.1045695,125 68,125.895431 68,127 L68,131.5 L49,131.5 L49,127 C49,125.895431 49.8954305,125 51,125 Z" id="Rectangle-Copy-4" stroke="#6E392C" stroke-width="1" fill="#622612"></path>
            <g id="arm-R" stroke-width="1" transform="translate(0.500000, 80.773998)">
                <path d="M13.9030084,0 C12.5311291,0 10.1213159,1.26849794 8.39622874,3.17212845 C6.03090337,5.78226072 4.5267597,9.78113005 3.85469509,15.8765471 L10.9379584,17.3383049 C11.2696623,15.9892789 11.9030084,10.5907542 13.9030084,8.72600219 L13.9030084,0 Z" id="Path-8" stroke="#3C9556" fill="#44AC32"></path>
                <rect id="Rectangle" stroke="#9FAED6" fill="#FFFFFF" stroke-linejoin="round" transform="translate(6.986700, 18.623986) rotate(10.000000) translate(-6.986700, -18.623986) " x="2.48669987" y="16.1239859" width="9" height="5"></rect>
                <path d="M6,20.2260022 C8.209139,20.2260022 10,22.0168632 10,24.2260022 C10,25.4099756 9.4856015,26.4738048 8.66810248,27.2061918 L8.37445611,25.4409406 C8.56126184,25.0765824 8.66666667,24.6636016 8.66666667,24.2260022 C8.66666667,22.7532429 7.47275933,21.5593355 6,21.5593355 C4.52724067,21.5593355 3.33333333,22.7532429 3.33333333,24.2260022 C3.33333333,24.6636016 3.43873816,25.0765824 3.62554389,25.4409406 L3.33290985,27.2070985 C2.51482318,26.4746829 2,25.4104642 2,24.2260022 C2,22.0168632 3.790861,20.2260022 6,20.2260022 Z" id="Combined-Shape" stroke="#BCC3D5" stroke-width="0.5" fill="#BEC3D2"></path>
                <path d="M6,18.2260022 C9.3137085,18.2260022 12,20.9122937 12,24.2260022 C12,26.4336239 10.8077321,28.3627766 9.03197707,29.4046793 L8.66810248,27.2061918 C9.4856015,26.4738048 10,25.4099756 10,24.2260022 C10,22.0168632 8.209139,20.2260022 6,20.2260022 C3.790861,20.2260022 2,22.0168632 2,24.2260022 C2,25.4104642 2.51482318,26.4746829 3.33290985,27.2070985 L2.96802293,29.4046793 C1.19226791,28.3627766 0,26.4336239 0,24.2260022 C0,20.9122937 2.6862915,18.2260022 6,18.2260022 Z" id="Combined-Shape" stroke="#9FAED6" fill="#FFFFFF" stroke-linejoin="round"></path>
            </g>
            <rect id="ear.-R" stroke="#EDA77F" stroke-width="1" fill="#FACDAD" stroke-linejoin="round" x="9" y="46" width="5" height="13" rx="1"></rect>
            <g id="arm-L" stroke-width="1" transform="translate(67.596992, 80.773998)">
                <path d="M10.0483133,-3.55271368e-15 C8.676434,-3.55271368e-15 6.26662076,1.26849794 4.54153365,3.17212845 C2.17620828,5.78226072 0.67206461,9.78113005 -8.8817842e-16,15.8765471 L7.08326329,17.3383049 C7.41496719,15.9892789 8.04831329,10.5907542 10.0483133,8.72600219 L10.0483133,-3.55271368e-15 Z" id="Path-8" stroke="#3C9556" fill="#44AC32" transform="translate(5.024157, 8.669152) scale(-1, 1) translate(-5.024157, -8.669152) "></path>
                <rect id="Rectangle" stroke="#9FAED6" fill="#FFFFFF" stroke-linejoin="round" transform="translate(6.916309, 18.623986) scale(-1, 1) rotate(10.000000) translate(-6.916309, -18.623986) " x="2.41630851" y="16.1239859" width="9" height="5"></rect>
                <path d="M7.90300838,20.2260022 C10.1121474,20.2260022 11.9030084,22.0168632 11.9030084,24.2260022 C11.9030084,25.4099756 11.3886099,26.4738048 10.5711109,27.2061918 L10.2774645,25.4409406 C10.4642702,25.0765824 10.569675,24.6636016 10.569675,24.2260022 C10.569675,22.7532429 9.37576771,21.5593355 7.90300838,21.5593355 C6.43024905,21.5593355 5.23634171,22.7532429 5.23634171,24.2260022 C5.23634171,24.6636016 5.34174654,25.0765824 5.52855227,25.4409406 L5.23591823,27.2070985 C4.41783156,26.4746829 3.90300838,25.4104642 3.90300838,24.2260022 C3.90300838,22.0168632 5.69386938,20.2260022 7.90300838,20.2260022 Z" id="Combined-Shape" stroke="#BCC3D5" stroke-width="0.5" fill="#BEC3D2" transform="translate(7.903008, 23.716550) scale(-1, 1) translate(-7.903008, -23.716550) "></path>
                <path d="M7.90300838,18.2260022 C11.2167169,18.2260022 13.9030084,20.9122937 13.9030084,24.2260022 C13.9030084,26.4336239 12.7107405,28.3627766 10.9349854,29.4046793 L10.5711109,27.2061918 C11.3886099,26.4738048 11.9030084,25.4099756 11.9030084,24.2260022 C11.9030084,22.0168632 10.1121474,20.2260022 7.90300838,20.2260022 C5.69386938,20.2260022 3.90300838,22.0168632 3.90300838,24.2260022 C3.90300838,25.4104642 4.41783156,26.4746829 5.23591823,27.2070985 L4.87103132,29.4046793 C3.0952763,28.3627766 1.90300838,26.4336239 1.90300838,24.2260022 C1.90300838,20.9122937 4.58929988,18.2260022 7.90300838,18.2260022 Z" id="Combined-Shape" stroke="#9FAED6" fill="#FFFFFF" stroke-linejoin="round" transform="translate(7.903008, 23.663011) scale(-1, 1) translate(-7.903008, -23.663011) "></path>
            </g>
            <rect id="ear-L" stroke="#EDA77F" stroke-width="1" fill="#FACDAD" stroke-linejoin="round" transform="translate(70.500000, 52.500000) scale(-1, 1) translate(-70.500000, -52.500000) " x="68" y="46" width="5" height="13" rx="1"></rect>
            <rect id="Rectangle" stroke="#2B63BC" stroke-width="1" fill="#396DC2" stroke-linejoin="round" x="14" y="77" width="54" height="24" rx="1"></rect>
            <path d="M66,77 C67.1045695,77 68,77.8954305 68,79 L68,115.218 L49.521,124 L32.478,124 L14,115.218 L14,79 C14,77.8954305 14.8954305,77 16,77 L66,77 Z" id="pants" stroke="#1E417A" stroke-width="1" fill="#295192" stroke-linejoin="round"></path>
            <rect id="Rectangle" stroke="#2B63BC" stroke-width="1" fill="#44AC32" x="27" y="77" width="28" height="20"></rect>
            <rect id="screen" fill="#454545" x="29" y="81" width="24" height="13"></rect>
            <path d="M68,31 L68,72.309082 L63.309082,77 L50.1488926,77.0005909 C47.9477627,78.8356594 44.6658435,80 41,80 C37.3341565,80 34.0522373,78.8356594 31.8511074,77.0005909 L18.690918,77 L14,72.309082 L14,31 L68,31 Z" id="face" stroke="#EDA77F" stroke-width="1" fill="#FACDAD" stroke-linejoin="round"></path>
            <g id="mouse" stroke-width="1" transform="translate(24.000000, 59.000000)">
                <g id="Group-2" transform="translate(11.000000, 3.000000)">
                    <ellipse id="Oval" fill="#454545" cx="6" cy="7.5" rx="6" ry="7.5"></ellipse>
                    <path d="M6,13.5 C7.11777355,13.5 8.1284626,13.7292416 8.85426748,14.098825 C8.00474501,14.6737815 7.03284947,15 6,15 C4.9672934,15 3.99552388,14.6738717 3.14701004,14.0995135 C3.87214553,13.7291037 4.88256273,13.5 6,13.5 Z" id="Combined-Shape" fill="#FF0000"></path>
                    <rect id="Rectangle" fill="#FFFFFF" x="0" y="9" width="12" height="2"></rect>
                    <ellipse id="Oval-Copy-10" stroke="#D0AA90" cx="6" cy="7.5" rx="6.5" ry="8"></ellipse>
                </g>
                <path d="M30,11.5 C33.5,8.5 34.5,3 32,0 C29.5,3 24.6666667,4 17,4 C9.33333333,4 4.5,3 2,0 C-0.5,3 0.5,8.5 4,11.5 C8.27428112,15.1636695 14.0013387,13.5012951 17,11 C20,13.5 25.7257189,15.1636695 30,11.5 Z" id="Path" stroke="#565656" fill="#454545"></path>
            </g>
            <g id="eye-R" stroke-width="1" transform="translate(24.000000, 35.500000)">
                <path d="M4,14 C4,11.2385763 6.23857625,9 9,9 C11.7614237,9 14,11.2385763 14,14 C14,16.7614237 14,15.7385763 14,18.5 C14,21.2614237 11.7614237,23.5 9,23.5 C6.23857625,23.5 4,21.2614237 4,18.5 C4,15.7385763 4,16.7614237 4,14 Z" id="Oval" fill="#FFFFFF"></path>
                <g id="Group-4" transform="translate(6.400000, 10.750000)">
                    <path d="M3.7,11 C6.34109053,11 7.4,8.53756612 7.4,5.5 C7.4,2.46243388 6.34242913,0 3.7,0 C1.05757087,0 4.52970994e-14,2.46243388 4.52970994e-14,5.5 C4.52970994e-14,8.53756612 1.05890947,11 3.7,11 Z" id="Oval" fill="#4593C7"></path>
                    <path d="M2,5.5 C2,4.34466462 2.14380483,3.27371063 2.63516333,2.54331286 C2.86830507,2.1967508 3.22167314,2 3.7,2 C4.17832686,2 4.53169493,2.1967508 4.76483667,2.54331286 C5.25619517,3.27371063 5.4,4.34466462 5.4,5.5 C5.4,6.65519131 5.25587142,7.72598052 4.76453478,8.4563458 C4.53138002,8.8029272 4.1781781,9 3.7,9 C3.2218219,9 2.86861998,8.8029272 2.63546522,8.4563458 C2.14412858,7.72598052 2,6.65519131 2,5.5 Z" id="Oval-Copy-7" stroke="#4E4E4E" fill="#454545"></path>
                    <circle id="Oval" fill="#FFFFFF" cx="3.7" cy="3.75" r="1"></circle>
                    <circle id="Oval-Copy-6" fill="#4593C7" cx="3.7" cy="7.25" r="1"></circle>
                </g>
                <path d="M1.53,7.79760742 C1.94641979,4.30362956 3.65440658,2.55664062 6.65396035,2.55664062 C9.65351413,2.55664062 11.6420605,4.51692708 12.6195996,8.4375 C10.5525423,6.55208333 8.5639959,5.609375 6.65396035,5.609375 C4.74392481,5.609375 3.03593802,6.33878581 1.53,7.79760742 Z" id="Path-7" fill="#454545" transform="translate(7.074800, 5.497070) scale(-1, 1) rotate(20.000000) translate(-7.074800, -5.497070) "></path>
            </g>
            <g id="eye-L" stroke-width="1" transform="translate(43.600000, 36.056641)">
                <path d="M0.4,13.4433594 C0.4,10.6819356 2.63857625,8.44335938 5.4,8.44335938 C8.16142375,8.44335938 10.4,10.6819356 10.4,13.4433594 C10.4,16.2047831 10.4,15.1819356 10.4,17.9433594 C10.4,20.7047831 8.16142375,22.9433594 5.4,22.9433594 C2.63857625,22.9433594 0.4,20.7047831 0.4,17.9433594 C0.4,15.1819356 0.4,16.2047831 0.4,13.4433594 Z" id="Oval" fill="#FFFFFF" transform="translate(5.400000, 15.693359) scale(-1, 1) translate(-5.400000, -15.693359) "></path>
                <g id="Group-3" transform="translate(0.600000, 10.193359)">
                    <path d="M3.7,11 C6.34109053,11 7.4,8.53756612 7.4,5.5 C7.4,2.46243388 6.34242913,0 3.7,0 C1.05757087,0 4.52970994e-14,2.46243388 4.52970994e-14,5.5 C4.52970994e-14,8.53756612 1.05890947,11 3.7,11 Z" id="Oval" fill="#4593C7" transform="translate(3.700000, 5.500000) scale(-1, 1) translate(-3.700000, -5.500000) "></path>
                    <path d="M2,5.5 C2,4.34466462 2.14380483,3.27371063 2.63516333,2.54331286 C2.86830507,2.1967508 3.22167314,2 3.7,2 C4.17832686,2 4.53169493,2.1967508 4.76483667,2.54331286 C5.25619517,3.27371063 5.4,4.34466462 5.4,5.5 C5.4,6.65519131 5.25587142,7.72598052 4.76453478,8.4563458 C4.53138002,8.8029272 4.1781781,9 3.7,9 C3.2218219,9 2.86861998,8.8029272 2.63546522,8.4563458 C2.14412858,7.72598052 2,6.65519131 2,5.5 Z" id="Oval" stroke="#4E4E4E" fill="#454545" transform="translate(3.700000, 5.500000) scale(-1, 1) translate(-3.700000, -5.500000) "></path>
                    <circle id="Oval" fill="#FFFFFF" transform="translate(3.700000, 3.750000) scale(-1, 1) translate(-3.700000, -3.750000) " cx="3.7" cy="3.75" r="1"></circle>
                    <circle id="Oval-Copy-6" fill="#4593C7" transform="translate(3.700000, 7.250000) scale(-1, 1) translate(-3.700000, -7.250000) " cx="3.7" cy="7.25" r="1"></circle>
                </g>
                <path d="M1.78,7.2409668 C2.19641979,3.74698893 3.90440658,2 6.90396035,2 C9.90351413,2 11.8920605,3.96028646 12.8695996,7.88085938 C10.8025423,5.99544271 8.8139959,5.05273438 6.90396035,5.05273438 C4.99392481,5.05273438 3.28593802,5.78214518 1.78,7.2409668 Z" id="Path-7" fill="#454545" transform="translate(7.324800, 4.940430) rotate(20.000000) translate(-7.324800, -4.940430) "></path>
            </g>
            <ellipse id="nose" stroke="#EDA77F" stroke-width="1" fill="#FACDAD" stroke-linejoin="round" cx="41" cy="61" rx="8" ry="7"></ellipse>
            <g id="hear" stroke-width="1" transform="translate(14.000000, 23.000000)" fill="#622612" stroke="#6E392C">
                <path d="M52,1 C53.328125,1 54,2.50581865 54,3.84146894 L54,30 L54,30 C50.578776,29.0269568 49,27.2814742 49,25 L49.0008069,13.9169061 C48.6753441,13.9715542 48.340994,14 48,14 C44.6862915,14 42,11.3137085 42,8 L12,8 C12,11.3137085 9.3137085,14 6,14 C5.65935467,14 5.32533963,13.9716124 5.00019152,13.9170737 L5,25 C5,27.2814742 3.42122396,29.0269568 0,30 L0,3.84146894 L0,3.84146894 C0,2.50581865 0.671875,1 2,1 L52,1 L52,1 Z" id="Combined-Shape"></path>
                <path d="M18,13 C21.3137085,13 24,10.3137085 24,7 L24,1 L12,1 L12,7 C12,10.3137085 14.6862915,13 18,13 Z" id="Oval"></path>
                <path d="M36,13 C39.3137085,13 42,10.3137085 42,7 L42,1 L30,1 L30,7 C30,10.3137085 32.6862915,13 36,13 Z" id="Oval" transform="translate(36.000000, 7.000000) scale(-1, 1) translate(-36.000000, -7.000000) "></path>
                <path d="M27,12 C30.3137085,12 33,9.3137085 33,6 L33,0 L21,0 L21,6 C21,9.3137085 23.6862915,12 27,12 Z" id="Oval"></path>
            </g>
            <g id="hat" stroke-width="1" transform="translate(17.000000, 0.500000)" fill="#44AC32" stroke="#3C9556">
                <path d="M1.51177783,23.5 C0.537169689,22.9061965 0.0332437469,21.0236418 0,17.8523358 C0,7.10191559 17.1059353,0.5 23.9999695,0.5 C30.8940037,0.5 48,7.10191559 48,17.8523358 C47.9667563,21.0236418 47.4628303,22.9061965 46.4882222,23.5 L23.9999695,23.5 L1.51177783,23.5 Z"></path>
                <path d="M24.000028,23.5 L3.38579634,23.5 C2.49240555,23.3450947 2.03047343,22.8539935 2,22.0266963 C2,19.2222389 17.6804966,17.5 24.000028,17.5 C30.3195593,17.5 17.6804407,17.5 23.999972,17.5 C30.3195034,17.5 46,19.2222389 46,22.0266963 C45.9695266,22.8539935 45.5075945,23.3450947 44.6142037,23.5 L23.999972,23.5" id="hat-copy"></path>
            </g>
            <circle id="button" stroke="#E6AB00" stroke-width="1" fill="#FFD500" transform="translate(61.500000, 89.500000) scale(-1, 1) translate(-61.500000, -89.500000) " cx="61.5" cy="89.5" r="6.5"></circle>
            <circle id="button" stroke="#E6AB00" stroke-width="1" fill="#FFD500" cx="20.5" cy="89.5" r="6.5"></circle>
            <g id="L-mark" stroke-width="1" transform="translate(33.500000, 4.000000)">
                <ellipse id="Oval" fill="#FFFFFF" cx="7.5" cy="6" rx="7.5" ry="6"></ellipse>
                <polygon id="Path" fill="#44AC32" fill-rule="nonzero" points="3.21428571 1.71428571 3.66541353 10.2857143 12 10.5 12 7.5 6 7.5 6 1.71428571"></polygon>
            </g>
        </g>
    </g>
</svg>