<?xml version="1.0" encoding="UTF-8"?>
<svg width="40px" height="40px" viewBox="0 0 40 40" version="1.1" xmlns="http://www.w3.org/2000/svg" xmlns:xlink="http://www.w3.org/1999/xlink">
    <!-- Generator: Sketch 64 (93537) - https://sketch.com -->
    <title>poweredup-small</title>
    <desc>Created with Sketch.</desc>
    <g id="poweredup-small" stroke="none" stroke-width="1" fill="none" fill-rule="evenodd">
        <rect id="Rectangle" stroke="#7C87A5" fill="#FFFFFF" x="4.5" y="12.5" width="31" height="16"></rect>
        <rect id="Rectangle-Copy-2" stroke="#7C87A5" fill="#E7E8E8" x="4.5" y="15.5" width="31" height="13"></rect>
        <rect id="Rectangle-Copy-5" stroke="#7C87A5" fill="#E7E8E8" x="4.5" y="24.5" width="31" height="4"></rect>
        <rect id="Rectangle-Copy-3" stroke="#7C87A5" fill="#B6B6B6" transform="translate(7.750000, 14.750000) scale(1, -1) translate(-7.750000, -14.750000) " x="6" y="14" width="3.5" height="1.5"></rect>
        <rect id="Rectangle-Copy-4" stroke="#7C87A5" fill="#B6B6B6" transform="translate(13.250000, 14.750000) scale(1, -1) translate(-13.250000, -14.750000) " x="11.5" y="14" width="3.5" height="1.5"></rect>
        <rect id="Rectangle-Copy" stroke="#7C87A5" x="4.5" y="12.5" width="12" height="16"></rect>
        <path d="M6.8933038,11.1692308 L6.1629509,11.1692308 C5.8448332,11.1692308 5.5888332,11.3828103 5.5888332,11.6478359 L5.5888332,12.7282051 L7.4711862,12.7282051 L7.4711862,11.6478359 C7.4711862,11.3828103 7.2114215,11.1692308 6.8933038,11.1692308" id="Fill-33" fill="#7C87A5" fill-rule="nonzero"></path>
        <path d="M9.8933038,11.1692308 L9.1629509,11.1692308 C8.8448332,11.1692308 8.5888332,11.3828103 8.5888332,11.6478359 L8.5888332,12.7282051 L10.4711862,12.7282051 L10.4711862,11.6478359 C10.4711862,11.3828103 10.2114215,11.1692308 9.8933038,11.1692308" id="Fill-33-Copy" fill="#7C87A5" fill-rule="nonzero"></path>
        <path d="M12.8933038,11.1692308 L12.1629509,11.1692308 C11.8448332,11.1692308 11.5888332,11.3828103 11.5888332,11.6478359 L11.5888332,12.7282051 L13.4711862,12.7282051 L13.4711862,11.6478359 C13.4711862,11.3828103 13.2114215,11.1692308 12.8933038,11.1692308" id="Fill-33-Copy-2" fill="#7C87A5" fill-rule="nonzero"></path>
        <path d="M15.8933038,11.1692308 L15.1629509,11.1692308 C14.8448332,11.1692308 14.5888332,11.3828103 14.5888332,11.6478359 L14.5888332,12.7282051 L16.4711862,12.7282051 L16.4711862,11.6478359 C16.4711862,11.3828103 16.2114215,11.1692308 15.8933038,11.1692308" id="Fill-33-Copy-3" fill="#7C87A5" fill-rule="nonzero"></path>
        <path d="M18.8933038,11.1692308 L18.1629509,11.1692308 C17.8448332,11.1692308 17.5888332,11.3828103 17.5888332,11.6478359 L17.5888332,12.7282051 L19.4711862,12.7282051 L19.4711862,11.6478359 C19.4711862,11.3828103 19.2114215,11.1692308 18.8933038,11.1692308" id="Fill-33-Copy-7" fill="#7C87A5" fill-rule="nonzero"></path>
        <path d="M21.8933038,11.1692308 L21.1629509,11.1692308 C20.8448332,11.1692308 20.5888332,11.3828103 20.5888332,11.6478359 L20.5888332,12.7282051 L22.4711862,12.7282051 L22.4711862,11.6478359 C22.4711862,11.3828103 22.2114215,11.1692308 21.8933038,11.1692308" id="Fill-33-Copy-6" fill="#7C87A5" fill-rule="nonzero"></path>
        <path d="M24.8933038,11.1692308 L24.1629509,11.1692308 C23.8448332,11.1692308 23.5888332,11.3828103 23.5888332,11.6478359 L23.5888332,12.7282051 L25.4711862,12.7282051 L25.4711862,11.6478359 C25.4711862,11.3828103 25.2114215,11.1692308 24.8933038,11.1692308" id="Fill-33-Copy-5" fill="#7C87A5" fill-rule="nonzero"></path>
        <path d="M27.8933038,11.1692308 L27.1629509,11.1692308 C26.8448332,11.1692308 26.5888332,11.3828103 26.5888332,11.6478359 L26.5888332,12.7282051 L28.4711862,12.7282051 L28.4711862,11.6478359 C28.4711862,11.3828103 28.2114215,11.1692308 27.8933038,11.1692308" id="Fill-33-Copy-4" fill="#7C87A5" fill-rule="nonzero"></path>
        <path d="M30.8933038,11.1692308 L30.1629509,11.1692308 C29.8448332,11.1692308 29.5888332,11.3828103 29.5888332,11.6478359 L29.5888332,12.7282051 L31.4711862,12.7282051 L31.4711862,11.6478359 C31.4711862,11.3828103 31.2114215,11.1692308 30.8933038,11.1692308" id="Fill-33-Copy-11" fill="#7C87A5" fill-rule="nonzero"></path>
        <path d="M33.8933038,11.1692308 L33.1629509,11.1692308 C32.8448332,11.1692308 32.5888332,11.3828103 32.5888332,11.6478359 L32.5888332,12.7282051 L34.4711862,12.7282051 L34.4711862,11.6478359 C34.4711862,11.3828103 34.2114215,11.1692308 33.8933038,11.1692308" id="Fill-33-Copy-10" fill="#7C87A5" fill-rule="nonzero"></path>
    </g>
</svg>